<?xml version="1.0" encoding="UTF-8"?>
<svg xmlns="http://www.w3.org/2000/svg" width="44" height="44" viewBox="0 0 44 44" fill="none">
  <rect width="44" height="44" rx="22" fill="#EAEDF3"></rect>
  <path d="M10 22C10 15.3726 15.3726 10 22 10C28.6274 10 34 15.3726 34 22C34 28.6274 28.6274 34 22 34C15.3726 34 10 28.6274 10 22Z" stroke="#141518" stroke-width="1.5"></path>
  <path d="M23.3639 29.6977V22.5756H25.3299L25.5904 20.1212H23.3639L23.3672 18.8928C23.3672 18.2527 23.428 17.9097 24.3474 17.9097H25.5765V15.4551H23.6102C21.2484 15.4551 20.417 16.6457 20.417 18.6479V20.1215H18.9448V22.5758H20.417V29.6977H23.3639Z" fill="#141518"></path>
</svg>
