<?xml version="1.0" encoding="UTF-8"?>
<svg xmlns="http://www.w3.org/2000/svg" width="44" height="44" viewBox="0 0 44 44" fill="none">
  <rect width="44" height="44" rx="22" fill="#EAEDF3"></rect>
  <path d="M31.4286 15.1429H28.8571V12.5714C28.8571 11.8894 28.5862 11.2354 28.104 10.7532C27.6218 10.2709 26.9677 10 26.2857 10H17.7143C17.0323 10 16.3782 10.2709 15.896 10.7532C15.4138 11.2354 15.1429 11.8894 15.1429 12.5714V15.1429H12.5714C11.8894 15.1429 11.2354 15.4138 10.7532 15.896C10.2709 16.3782 10 17.0323 10 17.7143V26.2857C10 26.9677 10.2709 27.6218 10.7532 28.104C11.2354 28.5862 11.8894 28.8571 12.5714 28.8571H15.1429V31.4286C15.1429 32.1106 15.4138 32.7646 15.896 33.2468C16.3782 33.7291 17.0323 34 17.7143 34H26.2857C26.9677 34 27.6218 33.7291 28.104 33.2468C28.5862 32.7646 28.8571 32.1106 28.8571 31.4286V28.8571H31.4286C32.1106 28.8571 32.7646 28.5862 33.2468 28.104C33.7291 27.6218 34 26.9677 34 26.2857V17.7143C34 17.0323 33.7291 16.3782 33.2468 15.896C32.7646 15.4138 32.1106 15.1429 31.4286 15.1429ZM16.8571 12.5714C16.8571 12.3441 16.9474 12.1261 17.1082 11.9653C17.2689 11.8046 17.487 11.7143 17.7143 11.7143H26.2857C26.513 11.7143 26.7311 11.8046 26.8918 11.9653C27.0526 12.1261 27.1429 12.3441 27.1429 12.5714V15.1429H16.8571V12.5714ZM27.1429 31.4286C27.1429 31.6559 27.0526 31.8739 26.8918 32.0347C26.7311 32.1954 26.513 32.2857 26.2857 32.2857H17.7143C17.487 32.2857 17.2689 32.1954 17.1082 32.0347C16.9474 31.8739 16.8571 31.6559 16.8571 31.4286V23.7143H27.1429V31.4286ZM32.2857 26.2857C32.2857 26.513 32.1954 26.7311 32.0347 26.8918C31.8739 27.0526 31.6559 27.1429 31.4286 27.1429H28.8571V22.8571C28.8571 22.6298 28.7668 22.4118 28.6061 22.2511C28.4453 22.0903 28.2273 22 28 22H16C15.7727 22 15.5547 22.0903 15.3939 22.2511C15.2332 22.4118 15.1429 22.6298 15.1429 22.8571V27.1429H12.5714C12.3441 27.1429 12.1261 27.0526 11.9653 26.8918C11.8046 26.7311 11.7143 26.513 11.7143 26.2857V17.7143C11.7143 17.487 11.8046 17.2689 11.9653 17.1082C12.1261 16.9474 12.3441 16.8571 12.5714 16.8571H31.4286C31.6559 16.8571 31.8739 16.9474 32.0347 17.1082C32.1954 17.2689 32.2857 17.487 32.2857 17.7143V26.2857Z" fill="#141518"></path>
  <path d="M15.9999 18.5723H15.1428C14.9155 18.5723 14.6974 18.6626 14.5367 18.8233C14.376 18.9841 14.2856 19.2021 14.2856 19.4294C14.2856 19.6567 14.376 19.8748 14.5367 20.0355C14.6974 20.1962 14.9155 20.2866 15.1428 20.2866H15.9999C16.2273 20.2866 16.4453 20.1962 16.606 20.0355C16.7668 19.8748 16.8571 19.6567 16.8571 19.4294C16.8571 19.2021 16.7668 18.9841 16.606 18.8233C16.4453 18.6626 16.2273 18.5723 15.9999 18.5723Z" fill="#141518"></path>
  <path d="M19.4284 27.142H24.5713C24.7986 27.142 25.0166 27.0517 25.1774 26.891C25.3381 26.7302 25.4284 26.5122 25.4284 26.2849C25.4284 26.0575 25.3381 25.8395 25.1774 25.6788C25.0166 25.518 24.7986 25.4277 24.5713 25.4277H19.4284C19.2011 25.4277 18.9831 25.518 18.8223 25.6788C18.6616 25.8395 18.5713 26.0575 18.5713 26.2849C18.5713 26.5122 18.6616 26.7302 18.8223 26.891C18.9831 27.0517 19.2011 27.142 19.4284 27.142Z" fill="#141518"></path>
  <path d="M19.4284 30.5717H24.5713C24.7986 30.5717 25.0166 30.4814 25.1774 30.3207C25.3381 30.1599 25.4284 29.9419 25.4284 29.7146C25.4284 29.4872 25.3381 29.2692 25.1774 29.1085C25.0166 28.9477 24.7986 28.8574 24.5713 28.8574H19.4284C19.2011 28.8574 18.9831 28.9477 18.8223 29.1085C18.6616 29.2692 18.5713 29.4872 18.5713 29.7146C18.5713 29.9419 18.6616 30.1599 18.8223 30.3207C18.9831 30.4814 19.2011 30.5717 19.4284 30.5717Z" fill="#141518"></path>
</svg>
