<?xml version="1.0" encoding="UTF-8"?>
<svg xmlns="http://www.w3.org/2000/svg" width="80" height="80" viewBox="0 0 80 80" fill="none">
  <rect width="80" height="80" rx="40" fill="#F6F8FC"></rect>
  <rect width="48" height="48" transform="translate(16 16)" fill="#F6F8FC"></rect>
  <path d="M50.6647 53.5619C50.5074 53.5616 50.353 53.5203 50.2167 53.442C50.0336 53.3376 49.8922 53.1732 49.8163 52.9766C49.7404 52.78 49.7348 52.5633 49.8002 52.363L52.1917 45.2202H47.8252C47.6817 45.2184 47.5406 45.1828 47.4134 45.1164C47.2862 45.05 47.1764 44.9546 47.0928 44.8379C47.0093 44.7211 46.9544 44.5864 46.9325 44.4446C46.9107 44.3027 46.9225 44.1577 46.9671 44.0213L50.4691 34.3419C50.5263 34.1603 50.6395 34.0015 50.7926 33.8882C50.9456 33.7748 51.1305 33.7128 51.3209 33.7109H58.3943C58.5592 33.7105 58.7212 33.7546 58.863 33.8386C59.0049 33.9226 59.1215 34.0434 59.2004 34.1883C59.2792 34.3331 59.3175 34.4965 59.3111 34.6613C59.3047 34.8261 59.2539 34.9861 59.1641 35.1244L56.0786 39.9893H60.6785C60.8541 39.9871 61.0266 40.0359 61.1751 40.1297C61.3236 40.2235 61.4417 40.3584 61.5152 40.5179C61.5886 40.6775 61.6142 40.8549 61.5889 41.0288C61.5636 41.2026 61.4885 41.3653 61.3726 41.4973L51.3398 53.24C51.2563 53.3382 51.153 53.4176 51.0366 53.4731C50.9203 53.5285 50.7935 53.5588 50.6647 53.5619ZM49.1187 43.3903H53.4536C53.5977 43.3911 53.7395 43.426 53.8675 43.492C53.9956 43.558 54.1062 43.6533 54.1905 43.7701C54.2747 43.887 54.3302 44.022 54.3524 44.1644C54.3745 44.3067 54.3628 44.4523 54.3181 44.5892L53.0183 48.4824L58.6972 41.8002H54.4254C54.2626 41.8006 54.1027 41.7572 53.9624 41.6746C53.8221 41.592 53.7066 41.4732 53.6279 41.3307C53.5492 41.1882 53.5103 41.0272 53.5151 40.8644C53.52 40.7017 53.5685 40.5433 53.6556 40.4057L56.7411 35.5408H51.9708L49.1187 43.3903Z" fill="#434449"></path>
  <path d="M47.4868 53.561H21.6856C21.4952 53.5592 21.3103 53.4971 21.1573 53.3838C21.0043 53.2705 20.8911 53.1116 20.8338 52.93C19.2514 48.596 19.1889 43.8529 20.6563 39.4786C22.1238 35.1044 25.0343 31.3587 28.9103 28.8558C32.7863 26.353 37.3978 25.2416 41.9884 25.704C46.579 26.1664 50.8762 28.1751 54.1753 31.4007C54.3391 31.5701 54.4307 31.7965 54.4308 32.0321C54.4308 32.2678 54.3394 32.4943 54.1756 32.6637C54.0119 32.8332 53.7887 32.9324 53.5532 32.9405C53.3176 32.9485 53.0882 32.8647 52.9133 32.7068C49.9432 29.8181 46.0911 28.0076 41.9717 27.5642C37.8524 27.1208 33.7032 28.0701 30.1864 30.2606C26.6697 32.4512 23.9881 35.7566 22.5696 39.6494C21.1512 43.5422 21.0777 47.798 22.3608 51.7375H47.4868C47.6129 51.727 47.7398 51.7427 47.8595 51.7838C47.9792 51.8248 48.0891 51.8903 48.1822 51.976C48.2754 52.0617 48.3497 52.1657 48.4005 52.2816C48.4514 52.3975 48.4776 52.5227 48.4776 52.6492C48.4776 52.7758 48.4514 52.901 48.4005 53.0168C48.3497 53.1327 48.2754 53.2368 48.1822 53.3225C48.0891 53.4082 47.9792 53.4736 47.8595 53.5147C47.7398 53.5557 47.6129 53.5715 47.4868 53.561Z" fill="#434449"></path>
  <path d="M58.2835 53.5608H54.7311C54.605 53.5713 54.4781 53.5556 54.3583 53.5145C54.2386 53.4734 54.1288 53.408 54.0356 53.3223C53.9425 53.2366 53.8682 53.1325 53.8173 53.0167C53.7665 52.9008 53.7402 52.7756 53.7402 52.649C53.7402 52.5225 53.7665 52.3973 53.8173 52.2814C53.8682 52.1656 53.9425 52.0615 54.0356 51.9758C54.1288 51.8901 54.2386 51.8247 54.3583 51.7836C54.4781 51.7425 54.605 51.7268 54.7311 51.7373H57.6084C58.209 49.8826 58.5135 47.9448 58.5107 45.9953C58.5297 45.7665 58.6341 45.5533 58.8029 45.3979C58.9718 45.2425 59.193 45.1563 59.4225 45.1562C59.652 45.1563 59.8731 45.2425 60.042 45.3979C60.2109 45.5533 60.3152 45.7665 60.3343 45.9953C60.3343 48.362 59.9222 50.7107 59.1165 52.9361C59.0576 53.1126 58.9463 53.2669 58.7975 53.3785C58.6487 53.4901 58.4694 53.5537 58.2835 53.5608Z" fill="#434449"></path>
  <path d="M43.9142 47.7046C43.6732 47.7046 43.4421 47.6089 43.2717 47.4385C43.1013 47.2681 43.0056 47.037 43.0056 46.796C43.0056 45.9777 42.6805 45.1929 42.1019 44.6142C41.5232 44.0356 40.7384 43.7105 39.9201 43.7105C39.1017 43.7105 38.3169 44.0356 37.7383 44.6142C37.1596 45.1929 36.8345 45.9777 36.8345 46.796C36.8155 47.0247 36.7112 47.2379 36.5423 47.3934C36.3734 47.5488 36.1523 47.635 35.9227 47.635C35.6932 47.635 35.4721 47.5488 35.3032 47.3934C35.1343 47.2379 35.03 47.0247 35.011 46.796C34.9873 46.1369 35.0967 45.4799 35.3326 44.864C35.5685 44.2482 35.9261 43.6862 36.384 43.2116C36.8419 42.737 37.3907 42.3595 37.9977 42.1016C38.6047 41.8438 39.2574 41.7109 39.9169 41.7109C40.5764 41.7109 41.2291 41.8438 41.8361 42.1016C42.4431 42.3595 42.9919 42.737 43.4498 43.2116C43.9077 43.6862 44.2653 44.2482 44.5012 44.864C44.7371 45.4799 44.8465 46.1369 44.8228 46.796C44.8228 47.037 44.7271 47.2681 44.5567 47.4385C44.3863 47.6089 44.1552 47.7046 43.9142 47.7046Z" fill="#434449"></path>
  <path d="M38.1786 44.102C38.0189 44.1017 37.8621 44.0596 37.7237 43.9799C37.5854 43.9002 37.4703 43.7857 37.3899 43.6477L34.3422 38.3411C34.2217 38.1319 34.1892 37.8834 34.252 37.6503C34.3147 37.4172 34.4674 37.2185 34.6766 37.098C34.8858 36.9776 35.1343 36.9451 35.3674 37.0078C35.6005 37.0705 35.7992 37.2233 35.9197 37.4325L38.9673 42.758C39.0472 42.8963 39.0892 43.0531 39.0891 43.2128C39.089 43.3724 39.0468 43.5293 38.9669 43.6674C38.8869 43.8056 38.7719 43.9203 38.6336 43.9999C38.4952 44.0795 38.3383 44.1213 38.1786 44.121V44.102Z" fill="#434449"></path>
  <path d="M39.9873 32.5077C40.6668 32.5077 41.2177 31.9569 41.2177 31.2773C41.2177 30.5978 40.6668 30.0469 39.9873 30.0469C39.3077 30.0469 38.7568 30.5978 38.7568 31.2773C38.7568 31.9569 39.3077 32.5077 39.9873 32.5077Z" fill="#434449"></path>
  <path d="M25.0957 47.3984C25.7752 47.3984 26.3261 46.8475 26.3261 46.1679C26.3261 45.4884 25.7752 44.9375 25.0957 44.9375C24.4161 44.9375 23.8652 45.4884 23.8652 46.1679C23.8652 46.8475 24.4161 47.3984 25.0957 47.3984Z" fill="#434449"></path>
  <path d="M47.4912 34.5312C48.1707 34.5312 48.7216 33.9803 48.7216 33.3007C48.7216 32.6212 48.1707 32.0703 47.4912 32.0703C46.8116 32.0703 46.2607 32.6212 46.2607 33.3007C46.2607 33.9803 46.8116 34.5312 47.4912 34.5312Z" fill="#434449"></path>
  <path d="M27.1181 39.8905C27.7977 39.8905 28.3486 39.3397 28.3486 38.6601C28.3486 37.9806 27.7977 37.4297 27.1181 37.4297C26.4386 37.4297 25.8877 37.9806 25.8877 38.6601C25.8877 39.3397 26.4386 39.8905 27.1181 39.8905Z" fill="#434449"></path>
  <path d="M32.4453 34.5624C33.1248 34.5624 33.6757 34.0115 33.6757 33.332C33.6757 32.6524 33.1248 32.1016 32.4453 32.1016C31.7657 32.1016 31.2148 32.6524 31.2148 33.332C31.2148 34.0115 31.7657 34.5624 32.4453 34.5624Z" fill="#434449"></path>
</svg>
