<?xml version="1.0" encoding="UTF-8"?>
<svg xmlns="http://www.w3.org/2000/svg" width="80" height="80" viewBox="0 0 80 80" fill="none">
  <rect width="80" height="80" rx="40" fill="#F6F8FC"></rect>
  <rect width="48" height="48" transform="translate(16 16)" fill="#F6F8FC"></rect>
  <mask id="path-2-outside-1_3901_131696" maskUnits="userSpaceOnUse" x="17.4004" y="17.3984" width="45" height="45" fill="black">
    <rect fill="white" x="17.4004" y="17.3984" width="45" height="45"></rect>
    <path d="M20.5424 56.5727C22.0587 56.5814 24.3973 56.5951 25.5824 56.5951C25.6134 56.5951 25.6386 56.5951 25.6732 56.5951C26.0455 56.5956 26.4154 56.6541 26.7697 56.7686L41.2324 61.4299C41.7836 61.607 42.3694 61.6486 42.9401 61.551C43.5108 61.4535 44.0495 61.2198 44.5106 60.8697L60.6783 48.5886C60.9357 48.3889 61.1494 48.1385 61.3063 47.8529C61.4631 47.5674 61.5597 47.2527 61.59 46.9283C61.6204 46.6039 61.5839 46.2767 61.4828 45.967C61.3817 45.6573 61.2182 45.3716 61.0023 45.1276L60.9778 45.0995C60.6012 44.6811 60.0874 44.4111 59.5292 44.3382C58.971 44.2653 58.4051 44.3943 57.9337 44.702L57.2259 45.1506C57.2583 44.8201 57.2806 44.4875 57.2806 44.1498C57.2806 39.9824 54.4683 34.9337 50.8107 32.2323C51.0709 31.9985 51.2699 31.7046 51.3902 31.3761C51.5105 31.0476 51.5484 30.6947 51.5007 30.3481C51.4529 30.0016 51.3209 29.6721 51.1163 29.3884C50.9117 29.1047 50.6406 28.8755 50.3268 28.7208L51.7236 23.7982C51.8315 23.4208 51.8504 23.0236 51.7789 22.6378C51.7073 22.2519 51.5473 21.8879 51.3113 21.5743C51.0753 21.2608 50.7699 21.0062 50.4189 20.8306C50.0679 20.6551 49.681 20.5633 49.2886 20.5625H48.3418C48.062 19.9194 47.6006 19.3721 47.0142 18.9877C46.4277 18.6032 45.7418 18.3984 45.0405 18.3984C44.3393 18.3984 43.6534 18.6032 43.0669 18.9877C42.4804 19.3721 42.019 19.9194 41.7393 20.5625H40.7925C40.4002 20.5633 40.0135 20.6551 39.6627 20.8306C39.3118 21.0061 39.0065 21.2605 38.7705 21.5739C38.5346 21.8873 38.3745 22.2511 38.3028 22.6368C38.2311 23.0224 38.2499 23.4195 38.3575 23.7967L39.7543 28.7208C39.4405 28.8755 39.1694 29.1047 38.9648 29.3884C38.7601 29.6721 38.6282 30.0016 38.5804 30.3481C38.5327 30.6947 38.5706 31.0476 38.6909 31.3761C38.8112 31.7046 39.0102 31.9985 39.2704 32.2323C35.7633 34.8185 33.0431 39.5706 32.8242 43.6271C32.0193 43.5641 31.213 43.7288 30.4972 44.1023L26.9425 46.0463C26.4134 46.3334 25.8208 46.4834 25.2188 46.4826H20.5604C19.9875 46.4826 19.4381 46.7102 19.033 47.1153C18.628 47.5203 18.4004 48.0697 18.4004 48.6426V54.4127C18.4015 54.9822 18.627 55.5282 19.0279 55.9325C19.4289 56.3368 19.973 56.5669 20.5424 56.5727ZM40.7205 31.3625C40.5296 31.3625 40.3464 31.2867 40.2114 31.1516C40.0764 31.0166 40.0005 30.8335 40.0005 30.6425C40.0005 30.4516 40.0764 30.2684 40.2114 30.1334C40.3464 29.9984 40.5296 29.9225 40.7205 29.9225H49.3606C49.5515 29.9225 49.7347 29.9984 49.8697 30.1334C50.0047 30.2684 50.0806 30.4516 50.0806 30.6425C50.0806 30.8335 50.0047 31.0166 49.8697 31.1516C49.7347 31.2867 49.5515 31.3625 49.3606 31.3625H40.7205ZM39.9228 22.4345C40.0241 22.2998 40.1555 22.1906 40.3065 22.1156C40.4575 22.0406 40.6239 22.0018 40.7925 22.0025H41.4405V24.8825C41.4405 25.0734 41.5164 25.2566 41.6514 25.3916C41.7864 25.5266 41.9696 25.6025 42.1605 25.6025C42.3515 25.6025 42.5346 25.5266 42.6696 25.3916C42.8047 25.2566 42.8805 25.0734 42.8805 24.8825V22.0025C42.8805 21.8196 42.9035 21.6374 42.9489 21.4603C42.9486 21.4555 42.9486 21.4507 42.9489 21.4459C42.9489 21.4373 42.9561 21.4308 42.9576 21.4221C43.0832 20.968 43.3538 20.5674 43.7283 20.2814C44.1027 19.9954 44.5604 19.8397 45.0316 19.8379C45.5027 19.8362 45.9616 19.9886 46.3381 20.2719C46.7146 20.5552 46.9881 20.9538 47.117 21.407C47.117 21.4207 47.1278 21.4315 47.1307 21.4452C47.1336 21.4589 47.1307 21.4553 47.1307 21.4603C47.1766 21.6374 47.2001 21.8195 47.2006 22.0025V24.8825C47.2006 25.0734 47.2764 25.2566 47.4114 25.3916C47.5465 25.5266 47.7296 25.6025 47.9206 25.6025C48.1115 25.6025 48.2947 25.5266 48.4297 25.3916C48.5647 25.2566 48.6406 25.0734 48.6406 24.8825V22.0025H49.2886C49.4583 22.0033 49.6254 22.0434 49.777 22.1198C49.9286 22.1961 50.0604 22.3065 50.1621 22.4423C50.2638 22.5781 50.3327 22.7357 50.3632 22.9026C50.3938 23.0695 50.3853 23.2412 50.3383 23.4043L48.8983 28.4825H41.1828L39.7428 23.4029C39.6948 23.2386 39.6861 23.0654 39.7174 22.8972C39.7487 22.729 39.819 22.5705 39.9228 22.4345ZM41.0085 32.8025H49.0798C52.7575 34.9856 55.8406 40.1329 55.8406 44.1498C55.8378 44.8387 55.7505 45.5248 55.5807 46.1924L51.7294 48.6304C51.6802 48.0377 51.4322 47.479 51.0256 47.0449C50.619 46.6109 50.0777 46.327 49.4894 46.2392L48.6125 46.1003C48.6226 45.988 48.6406 45.8785 48.6406 45.7626C48.6395 44.933 48.3525 44.1291 47.8279 43.4865C47.3033 42.8438 46.5731 42.4017 45.7605 42.2346V37.975C46.1802 38.1234 46.5438 38.3978 46.8016 38.7608C47.0594 39.1237 47.1987 39.5574 47.2006 40.0026C47.2006 40.1935 47.2764 40.3767 47.4114 40.5117C47.5465 40.6467 47.7296 40.7226 47.9206 40.7226C48.1115 40.7226 48.2947 40.6467 48.4297 40.5117C48.5647 40.3767 48.6406 40.1935 48.6406 40.0026C48.6395 39.173 48.3525 38.3691 47.8279 37.7265C47.3033 37.0838 46.5731 36.6417 45.7605 36.4745V36.4025C45.7605 36.2116 45.6847 36.0285 45.5497 35.8934C45.4146 35.7584 45.2315 35.6825 45.0405 35.6825C44.8496 35.6825 44.6664 35.7584 44.5314 35.8934C44.3964 36.0285 44.3205 36.2116 44.3205 36.4025V36.4745C43.5067 36.6398 42.7751 37.0813 42.2495 37.7243C41.724 38.3673 41.4369 39.1721 41.4369 40.0026C41.4369 40.833 41.724 41.6379 42.2495 42.2808C42.7751 42.9238 43.5067 43.3653 44.3205 43.5306V45.4206L34.2556 43.8251C34.4133 39.8586 37.4207 34.928 41.0085 32.8025ZM44.3205 42.0301C43.8997 41.8835 43.5348 41.6095 43.2767 41.2462C43.0185 40.8829 42.8798 40.4483 42.8798 40.0026C42.8798 39.5569 43.0185 39.1222 43.2767 38.7589C43.5348 38.3956 43.8997 38.1217 44.3205 37.975V42.0301ZM45.7605 43.7351C46.1802 43.8834 46.5438 44.1579 46.8016 44.5208C47.0594 44.8837 47.1987 45.3175 47.2006 45.7626C47.2006 45.8022 47.1934 45.8346 47.1919 45.8749L45.7605 45.6481V43.7351ZM19.8404 48.6426C19.8404 48.4517 19.9163 48.2685 20.0513 48.1335C20.1863 47.9985 20.3694 47.9226 20.5604 47.9226H25.2188C26.0623 47.9219 26.8922 47.7103 27.633 47.307L31.1769 45.3724C31.7201 45.0873 32.3401 44.9831 32.9466 45.075L49.2677 47.662C49.5706 47.709 49.8447 47.8685 50.0351 48.1088C50.2255 48.349 50.3183 48.6522 50.295 48.9579C50.2716 49.2636 50.1338 49.5492 49.9091 49.7577C49.6843 49.9662 49.3892 50.0822 49.0826 50.0826H34.9605C34.7695 50.0826 34.5864 50.1585 34.4514 50.2935C34.3163 50.4285 34.2405 50.6117 34.2405 50.8026C34.2405 50.9936 34.3163 51.1767 34.4514 51.3118C34.5864 51.4468 34.7695 51.5226 34.9605 51.5226H38.3186L42.5767 54.7576C42.8666 54.9763 43.2161 55.1016 43.5789 55.1169C43.9417 55.1323 44.3006 55.0368 44.6078 54.8433L58.712 45.9152C58.8944 45.7952 59.1132 45.7433 59.3301 45.7686C59.5469 45.7939 59.7479 45.8947 59.8978 46.0535C59.9034 46.0608 59.9094 46.0677 59.9158 46.0744C60.0027 46.1701 60.0689 46.2827 60.1105 46.4051C60.152 46.5275 60.1679 46.6571 60.1572 46.7859C60.1466 46.9148 60.1095 47.04 60.0484 47.1539C59.9873 47.2678 59.9035 47.368 59.8021 47.4481L43.6401 59.7235C43.3634 59.9332 43.0402 60.0732 42.6979 60.1314C42.3556 60.1897 42.0043 60.1646 41.6738 60.0583L27.2089 55.3977C26.7128 55.2374 26.1946 55.1555 25.6732 55.1551H25.6652C24.5305 55.145 22.1034 55.1414 20.5532 55.1327C20.3639 55.1303 20.1831 55.0533 20.0501 54.9186C19.9171 54.7838 19.8425 54.6021 19.8426 54.4127L19.8404 48.6426ZM47.161 51.5226L43.8374 53.6272C43.7781 53.664 43.7091 53.6821 43.6394 53.6791C43.5697 53.6762 43.5024 53.6523 43.4465 53.6106L40.6989 51.5226H47.161Z"></path>
  </mask>
  <path d="M20.5424 56.5727C22.0587 56.5814 24.3973 56.5951 25.5824 56.5951C25.6134 56.5951 25.6386 56.5951 25.6732 56.5951C26.0455 56.5956 26.4154 56.6541 26.7697 56.7686L41.2324 61.4299C41.7836 61.607 42.3694 61.6486 42.9401 61.551C43.5108 61.4535 44.0495 61.2198 44.5106 60.8697L60.6783 48.5886C60.9357 48.3889 61.1494 48.1385 61.3063 47.8529C61.4631 47.5674 61.5597 47.2527 61.59 46.9283C61.6204 46.6039 61.5839 46.2767 61.4828 45.967C61.3817 45.6573 61.2182 45.3716 61.0023 45.1276L60.9778 45.0995C60.6012 44.6811 60.0874 44.4111 59.5292 44.3382C58.971 44.2653 58.4051 44.3943 57.9337 44.702L57.2259 45.1506C57.2583 44.8201 57.2806 44.4875 57.2806 44.1498C57.2806 39.9824 54.4683 34.9337 50.8107 32.2323C51.0709 31.9985 51.2699 31.7046 51.3902 31.3761C51.5105 31.0476 51.5484 30.6947 51.5007 30.3481C51.4529 30.0016 51.3209 29.6721 51.1163 29.3884C50.9117 29.1047 50.6406 28.8755 50.3268 28.7208L51.7236 23.7982C51.8315 23.4208 51.8504 23.0236 51.7789 22.6378C51.7073 22.2519 51.5473 21.8879 51.3113 21.5743C51.0753 21.2608 50.7699 21.0062 50.4189 20.8306C50.0679 20.6551 49.681 20.5633 49.2886 20.5625H48.3418C48.062 19.9194 47.6006 19.3721 47.0142 18.9877C46.4277 18.6032 45.7418 18.3984 45.0405 18.3984C44.3393 18.3984 43.6534 18.6032 43.0669 18.9877C42.4804 19.3721 42.019 19.9194 41.7393 20.5625H40.7925C40.4002 20.5633 40.0135 20.6551 39.6627 20.8306C39.3118 21.0061 39.0065 21.2605 38.7705 21.5739C38.5346 21.8873 38.3745 22.2511 38.3028 22.6368C38.2311 23.0224 38.2499 23.4195 38.3575 23.7967L39.7543 28.7208C39.4405 28.8755 39.1694 29.1047 38.9648 29.3884C38.7601 29.6721 38.6282 30.0016 38.5804 30.3481C38.5327 30.6947 38.5706 31.0476 38.6909 31.3761C38.8112 31.7046 39.0102 31.9985 39.2704 32.2323C35.7633 34.8185 33.0431 39.5706 32.8242 43.6271C32.0193 43.5641 31.213 43.7288 30.4972 44.1023L26.9425 46.0463C26.4134 46.3334 25.8208 46.4834 25.2188 46.4826H20.5604C19.9875 46.4826 19.4381 46.7102 19.033 47.1153C18.628 47.5203 18.4004 48.0697 18.4004 48.6426V54.4127C18.4015 54.9822 18.627 55.5282 19.0279 55.9325C19.4289 56.3368 19.973 56.5669 20.5424 56.5727ZM40.7205 31.3625C40.5296 31.3625 40.3464 31.2867 40.2114 31.1516C40.0764 31.0166 40.0005 30.8335 40.0005 30.6425C40.0005 30.4516 40.0764 30.2684 40.2114 30.1334C40.3464 29.9984 40.5296 29.9225 40.7205 29.9225H49.3606C49.5515 29.9225 49.7347 29.9984 49.8697 30.1334C50.0047 30.2684 50.0806 30.4516 50.0806 30.6425C50.0806 30.8335 50.0047 31.0166 49.8697 31.1516C49.7347 31.2867 49.5515 31.3625 49.3606 31.3625H40.7205ZM39.9228 22.4345C40.0241 22.2998 40.1555 22.1906 40.3065 22.1156C40.4575 22.0406 40.6239 22.0018 40.7925 22.0025H41.4405V24.8825C41.4405 25.0734 41.5164 25.2566 41.6514 25.3916C41.7864 25.5266 41.9696 25.6025 42.1605 25.6025C42.3515 25.6025 42.5346 25.5266 42.6696 25.3916C42.8047 25.2566 42.8805 25.0734 42.8805 24.8825V22.0025C42.8805 21.8196 42.9035 21.6374 42.9489 21.4603C42.9486 21.4555 42.9486 21.4507 42.9489 21.4459C42.9489 21.4373 42.9561 21.4308 42.9576 21.4221C43.0832 20.968 43.3538 20.5674 43.7283 20.2814C44.1027 19.9954 44.5604 19.8397 45.0316 19.8379C45.5027 19.8362 45.9616 19.9886 46.3381 20.2719C46.7146 20.5552 46.9881 20.9538 47.117 21.407C47.117 21.4207 47.1278 21.4315 47.1307 21.4452C47.1336 21.4589 47.1307 21.4553 47.1307 21.4603C47.1766 21.6374 47.2001 21.8195 47.2006 22.0025V24.8825C47.2006 25.0734 47.2764 25.2566 47.4114 25.3916C47.5465 25.5266 47.7296 25.6025 47.9206 25.6025C48.1115 25.6025 48.2947 25.5266 48.4297 25.3916C48.5647 25.2566 48.6406 25.0734 48.6406 24.8825V22.0025H49.2886C49.4583 22.0033 49.6254 22.0434 49.777 22.1198C49.9286 22.1961 50.0604 22.3065 50.1621 22.4423C50.2638 22.5781 50.3327 22.7357 50.3632 22.9026C50.3938 23.0695 50.3853 23.2412 50.3383 23.4043L48.8983 28.4825H41.1828L39.7428 23.4029C39.6948 23.2386 39.6861 23.0654 39.7174 22.8972C39.7487 22.729 39.819 22.5705 39.9228 22.4345ZM41.0085 32.8025H49.0798C52.7575 34.9856 55.8406 40.1329 55.8406 44.1498C55.8378 44.8387 55.7505 45.5248 55.5807 46.1924L51.7294 48.6304C51.6802 48.0377 51.4322 47.479 51.0256 47.0449C50.619 46.6109 50.0777 46.327 49.4894 46.2392L48.6125 46.1003C48.6226 45.988 48.6406 45.8785 48.6406 45.7626C48.6395 44.933 48.3525 44.1291 47.8279 43.4865C47.3033 42.8438 46.5731 42.4017 45.7605 42.2346V37.975C46.1802 38.1234 46.5438 38.3978 46.8016 38.7608C47.0594 39.1237 47.1987 39.5574 47.2006 40.0026C47.2006 40.1935 47.2764 40.3767 47.4114 40.5117C47.5465 40.6467 47.7296 40.7226 47.9206 40.7226C48.1115 40.7226 48.2947 40.6467 48.4297 40.5117C48.5647 40.3767 48.6406 40.1935 48.6406 40.0026C48.6395 39.173 48.3525 38.3691 47.8279 37.7265C47.3033 37.0838 46.5731 36.6417 45.7605 36.4745V36.4025C45.7605 36.2116 45.6847 36.0285 45.5497 35.8934C45.4146 35.7584 45.2315 35.6825 45.0405 35.6825C44.8496 35.6825 44.6664 35.7584 44.5314 35.8934C44.3964 36.0285 44.3205 36.2116 44.3205 36.4025V36.4745C43.5067 36.6398 42.7751 37.0813 42.2495 37.7243C41.724 38.3673 41.4369 39.1721 41.4369 40.0026C41.4369 40.833 41.724 41.6379 42.2495 42.2808C42.7751 42.9238 43.5067 43.3653 44.3205 43.5306V45.4206L34.2556 43.8251C34.4133 39.8586 37.4207 34.928 41.0085 32.8025ZM44.3205 42.0301C43.8997 41.8835 43.5348 41.6095 43.2767 41.2462C43.0185 40.8829 42.8798 40.4483 42.8798 40.0026C42.8798 39.5569 43.0185 39.1222 43.2767 38.7589C43.5348 38.3956 43.8997 38.1217 44.3205 37.975V42.0301ZM45.7605 43.7351C46.1802 43.8834 46.5438 44.1579 46.8016 44.5208C47.0594 44.8837 47.1987 45.3175 47.2006 45.7626C47.2006 45.8022 47.1934 45.8346 47.1919 45.8749L45.7605 45.6481V43.7351ZM19.8404 48.6426C19.8404 48.4517 19.9163 48.2685 20.0513 48.1335C20.1863 47.9985 20.3694 47.9226 20.5604 47.9226H25.2188C26.0623 47.9219 26.8922 47.7103 27.633 47.307L31.1769 45.3724C31.7201 45.0873 32.3401 44.9831 32.9466 45.075L49.2677 47.662C49.5706 47.709 49.8447 47.8685 50.0351 48.1088C50.2255 48.349 50.3183 48.6522 50.295 48.9579C50.2716 49.2636 50.1338 49.5492 49.9091 49.7577C49.6843 49.9662 49.3892 50.0822 49.0826 50.0826H34.9605C34.7695 50.0826 34.5864 50.1585 34.4514 50.2935C34.3163 50.4285 34.2405 50.6117 34.2405 50.8026C34.2405 50.9936 34.3163 51.1767 34.4514 51.3118C34.5864 51.4468 34.7695 51.5226 34.9605 51.5226H38.3186L42.5767 54.7576C42.8666 54.9763 43.2161 55.1016 43.5789 55.1169C43.9417 55.1323 44.3006 55.0368 44.6078 54.8433L58.712 45.9152C58.8944 45.7952 59.1132 45.7433 59.3301 45.7686C59.5469 45.7939 59.7479 45.8947 59.8978 46.0535C59.9034 46.0608 59.9094 46.0677 59.9158 46.0744C60.0027 46.1701 60.0689 46.2827 60.1105 46.4051C60.152 46.5275 60.1679 46.6571 60.1572 46.7859C60.1466 46.9148 60.1095 47.04 60.0484 47.1539C59.9873 47.2678 59.9035 47.368 59.8021 47.4481L43.6401 59.7235C43.3634 59.9332 43.0402 60.0732 42.6979 60.1314C42.3556 60.1897 42.0043 60.1646 41.6738 60.0583L27.2089 55.3977C26.7128 55.2374 26.1946 55.1555 25.6732 55.1551H25.6652C24.5305 55.145 22.1034 55.1414 20.5532 55.1327C20.3639 55.1303 20.1831 55.0533 20.0501 54.9186C19.9171 54.7838 19.8425 54.6021 19.8426 54.4127L19.8404 48.6426ZM47.161 51.5226L43.8374 53.6272C43.7781 53.664 43.7091 53.6821 43.6394 53.6791C43.5697 53.6762 43.5024 53.6523 43.4465 53.6106L40.6989 51.5226H47.161Z" fill="#434449"></path>
  <path d="M20.5424 56.5727C22.0587 56.5814 24.3973 56.5951 25.5824 56.5951C25.6134 56.5951 25.6386 56.5951 25.6732 56.5951C26.0455 56.5956 26.4154 56.6541 26.7697 56.7686L41.2324 61.4299C41.7836 61.607 42.3694 61.6486 42.9401 61.551C43.5108 61.4535 44.0495 61.2198 44.5106 60.8697L60.6783 48.5886C60.9357 48.3889 61.1494 48.1385 61.3063 47.8529C61.4631 47.5674 61.5597 47.2527 61.59 46.9283C61.6204 46.6039 61.5839 46.2767 61.4828 45.967C61.3817 45.6573 61.2182 45.3716 61.0023 45.1276L60.9778 45.0995C60.6012 44.6811 60.0874 44.4111 59.5292 44.3382C58.971 44.2653 58.4051 44.3943 57.9337 44.702L57.2259 45.1506C57.2583 44.8201 57.2806 44.4875 57.2806 44.1498C57.2806 39.9824 54.4683 34.9337 50.8107 32.2323C51.0709 31.9985 51.2699 31.7046 51.3902 31.3761C51.5105 31.0476 51.5484 30.6947 51.5007 30.3481C51.4529 30.0016 51.3209 29.6721 51.1163 29.3884C50.9117 29.1047 50.6406 28.8755 50.3268 28.7208L51.7236 23.7982C51.8315 23.4208 51.8504 23.0236 51.7789 22.6378C51.7073 22.2519 51.5473 21.8879 51.3113 21.5743C51.0753 21.2608 50.7699 21.0062 50.4189 20.8306C50.0679 20.6551 49.681 20.5633 49.2886 20.5625H48.3418C48.062 19.9194 47.6006 19.3721 47.0142 18.9877C46.4277 18.6032 45.7418 18.3984 45.0405 18.3984C44.3393 18.3984 43.6534 18.6032 43.0669 18.9877C42.4804 19.3721 42.019 19.9194 41.7393 20.5625H40.7925C40.4002 20.5633 40.0135 20.6551 39.6627 20.8306C39.3118 21.0061 39.0065 21.2605 38.7705 21.5739C38.5346 21.8873 38.3745 22.2511 38.3028 22.6368C38.2311 23.0224 38.2499 23.4195 38.3575 23.7967L39.7543 28.7208C39.4405 28.8755 39.1694 29.1047 38.9648 29.3884C38.7601 29.6721 38.6282 30.0016 38.5804 30.3481C38.5327 30.6947 38.5706 31.0476 38.6909 31.3761C38.8112 31.7046 39.0102 31.9985 39.2704 32.2323C35.7633 34.8185 33.0431 39.5706 32.8242 43.6271C32.0193 43.5641 31.213 43.7288 30.4972 44.1023L26.9425 46.0463C26.4134 46.3334 25.8208 46.4834 25.2188 46.4826H20.5604C19.9875 46.4826 19.4381 46.7102 19.033 47.1153C18.628 47.5203 18.4004 48.0697 18.4004 48.6426V54.4127C18.4015 54.9822 18.627 55.5282 19.0279 55.9325C19.4289 56.3368 19.973 56.5669 20.5424 56.5727ZM40.7205 31.3625C40.5296 31.3625 40.3464 31.2867 40.2114 31.1516C40.0764 31.0166 40.0005 30.8335 40.0005 30.6425C40.0005 30.4516 40.0764 30.2684 40.2114 30.1334C40.3464 29.9984 40.5296 29.9225 40.7205 29.9225H49.3606C49.5515 29.9225 49.7347 29.9984 49.8697 30.1334C50.0047 30.2684 50.0806 30.4516 50.0806 30.6425C50.0806 30.8335 50.0047 31.0166 49.8697 31.1516C49.7347 31.2867 49.5515 31.3625 49.3606 31.3625H40.7205ZM39.9228 22.4345C40.0241 22.2998 40.1555 22.1906 40.3065 22.1156C40.4575 22.0406 40.6239 22.0018 40.7925 22.0025H41.4405V24.8825C41.4405 25.0734 41.5164 25.2566 41.6514 25.3916C41.7864 25.5266 41.9696 25.6025 42.1605 25.6025C42.3515 25.6025 42.5346 25.5266 42.6696 25.3916C42.8047 25.2566 42.8805 25.0734 42.8805 24.8825V22.0025C42.8805 21.8196 42.9035 21.6374 42.9489 21.4603C42.9486 21.4555 42.9486 21.4507 42.9489 21.4459C42.9489 21.4373 42.9561 21.4308 42.9576 21.4221C43.0832 20.968 43.3538 20.5674 43.7283 20.2814C44.1027 19.9954 44.5604 19.8397 45.0316 19.8379C45.5027 19.8362 45.9616 19.9886 46.3381 20.2719C46.7146 20.5552 46.9881 20.9538 47.117 21.407C47.117 21.4207 47.1278 21.4315 47.1307 21.4452C47.1336 21.4589 47.1307 21.4553 47.1307 21.4603C47.1766 21.6374 47.2001 21.8195 47.2006 22.0025V24.8825C47.2006 25.0734 47.2764 25.2566 47.4114 25.3916C47.5465 25.5266 47.7296 25.6025 47.9206 25.6025C48.1115 25.6025 48.2947 25.5266 48.4297 25.3916C48.5647 25.2566 48.6406 25.0734 48.6406 24.8825V22.0025H49.2886C49.4583 22.0033 49.6254 22.0434 49.777 22.1198C49.9286 22.1961 50.0604 22.3065 50.1621 22.4423C50.2638 22.5781 50.3327 22.7357 50.3632 22.9026C50.3938 23.0695 50.3853 23.2412 50.3383 23.4043L48.8983 28.4825H41.1828L39.7428 23.4029C39.6948 23.2386 39.6861 23.0654 39.7174 22.8972C39.7487 22.729 39.819 22.5705 39.9228 22.4345ZM41.0085 32.8025H49.0798C52.7575 34.9856 55.8406 40.1329 55.8406 44.1498C55.8378 44.8387 55.7505 45.5248 55.5807 46.1924L51.7294 48.6304C51.6802 48.0377 51.4322 47.479 51.0256 47.0449C50.619 46.6109 50.0777 46.327 49.4894 46.2392L48.6125 46.1003C48.6226 45.988 48.6406 45.8785 48.6406 45.7626C48.6395 44.933 48.3525 44.1291 47.8279 43.4865C47.3033 42.8438 46.5731 42.4017 45.7605 42.2346V37.975C46.1802 38.1234 46.5438 38.3978 46.8016 38.7608C47.0594 39.1237 47.1987 39.5574 47.2006 40.0026C47.2006 40.1935 47.2764 40.3767 47.4114 40.5117C47.5465 40.6467 47.7296 40.7226 47.9206 40.7226C48.1115 40.7226 48.2947 40.6467 48.4297 40.5117C48.5647 40.3767 48.6406 40.1935 48.6406 40.0026C48.6395 39.173 48.3525 38.3691 47.8279 37.7265C47.3033 37.0838 46.5731 36.6417 45.7605 36.4745V36.4025C45.7605 36.2116 45.6847 36.0285 45.5497 35.8934C45.4146 35.7584 45.2315 35.6825 45.0405 35.6825C44.8496 35.6825 44.6664 35.7584 44.5314 35.8934C44.3964 36.0285 44.3205 36.2116 44.3205 36.4025V36.4745C43.5067 36.6398 42.7751 37.0813 42.2495 37.7243C41.724 38.3673 41.4369 39.1721 41.4369 40.0026C41.4369 40.833 41.724 41.6379 42.2495 42.2808C42.7751 42.9238 43.5067 43.3653 44.3205 43.5306V45.4206L34.2556 43.8251C34.4133 39.8586 37.4207 34.928 41.0085 32.8025ZM44.3205 42.0301C43.8997 41.8835 43.5348 41.6095 43.2767 41.2462C43.0185 40.8829 42.8798 40.4483 42.8798 40.0026C42.8798 39.5569 43.0185 39.1222 43.2767 38.7589C43.5348 38.3956 43.8997 38.1217 44.3205 37.975V42.0301ZM45.7605 43.7351C46.1802 43.8834 46.5438 44.1579 46.8016 44.5208C47.0594 44.8837 47.1987 45.3175 47.2006 45.7626C47.2006 45.8022 47.1934 45.8346 47.1919 45.8749L45.7605 45.6481V43.7351ZM19.8404 48.6426C19.8404 48.4517 19.9163 48.2685 20.0513 48.1335C20.1863 47.9985 20.3694 47.9226 20.5604 47.9226H25.2188C26.0623 47.9219 26.8922 47.7103 27.633 47.307L31.1769 45.3724C31.7201 45.0873 32.3401 44.9831 32.9466 45.075L49.2677 47.662C49.5706 47.709 49.8447 47.8685 50.0351 48.1088C50.2255 48.349 50.3183 48.6522 50.295 48.9579C50.2716 49.2636 50.1338 49.5492 49.9091 49.7577C49.6843 49.9662 49.3892 50.0822 49.0826 50.0826H34.9605C34.7695 50.0826 34.5864 50.1585 34.4514 50.2935C34.3163 50.4285 34.2405 50.6117 34.2405 50.8026C34.2405 50.9936 34.3163 51.1767 34.4514 51.3118C34.5864 51.4468 34.7695 51.5226 34.9605 51.5226H38.3186L42.5767 54.7576C42.8666 54.9763 43.2161 55.1016 43.5789 55.1169C43.9417 55.1323 44.3006 55.0368 44.6078 54.8433L58.712 45.9152C58.8944 45.7952 59.1132 45.7433 59.3301 45.7686C59.5469 45.7939 59.7479 45.8947 59.8978 46.0535C59.9034 46.0608 59.9094 46.0677 59.9158 46.0744C60.0027 46.1701 60.0689 46.2827 60.1105 46.4051C60.152 46.5275 60.1679 46.6571 60.1572 46.7859C60.1466 46.9148 60.1095 47.04 60.0484 47.1539C59.9873 47.2678 59.9035 47.368 59.8021 47.4481L43.6401 59.7235C43.3634 59.9332 43.0402 60.0732 42.6979 60.1314C42.3556 60.1897 42.0043 60.1646 41.6738 60.0583L27.2089 55.3977C26.7128 55.2374 26.1946 55.1555 25.6732 55.1551H25.6652C24.5305 55.145 22.1034 55.1414 20.5532 55.1327C20.3639 55.1303 20.1831 55.0533 20.0501 54.9186C19.9171 54.7838 19.8425 54.6021 19.8426 54.4127L19.8404 48.6426ZM47.161 51.5226L43.8374 53.6272C43.7781 53.664 43.7091 53.6821 43.6394 53.6791C43.5697 53.6762 43.5024 53.6523 43.4465 53.6106L40.6989 51.5226H47.161Z" stroke="#434449" stroke-width="0.4" mask="url(#path-2-outside-1_3901_131696)"></path>
</svg>
