<?xml version="1.0" encoding="UTF-8"?>
<svg xmlns="http://www.w3.org/2000/svg" width="80" height="80" viewBox="0 0 80 80" fill="none">
  <rect width="80" height="80" rx="40" fill="#F6F8FC"></rect>
  <rect width="48" height="48" transform="translate(16 16)" fill="#F6F8FC"></rect>
  <path d="M62.3318 36.2521L40.5553 22.1646C40.2167 21.9461 39.7808 21.9461 39.4416 22.1646L31.5991 27.2391V23.0252C31.5991 22.4587 31.1398 22 30.5739 22H25.4724C24.9065 22 24.4472 22.4587 24.4472 23.0252V31.8057C24.4472 31.808 24.4466 31.8115 24.4466 31.8139V31.8678L17.6686 36.2521C17.1929 36.5597 17.0575 37.1947 17.3645 37.6698C17.5608 37.9745 17.89 38.1391 18.2263 38.1391C18.4173 38.1391 18.61 38.0852 18.7822 37.9745L24.4461 34.3095V52.762H18.958C18.3921 52.762 17.9328 53.2207 17.9328 53.7872C17.9328 54.3537 18.3921 54.8125 18.958 54.8125H29.1075C29.6734 54.8125 30.1327 54.3537 30.1327 53.7872C30.1327 53.2207 29.6734 52.762 29.1075 52.762H26.4965V32.9832L31.1327 29.9831C31.1404 29.9784 31.148 29.9738 31.1562 29.9685L39.9999 24.2461L53.5057 32.9838V52.7615H51.208C50.6415 52.7615 50.1828 53.2202 50.1828 53.7867C50.1828 54.3532 50.6415 54.8119 51.208 54.8119H61.0436C61.6101 54.8119 62.0688 54.3532 62.0688 53.7867C62.0688 53.2202 61.6101 52.7615 61.0436 52.7615H55.5561V34.3113L61.2187 37.9739C61.6927 38.2814 62.3289 38.1444 62.6364 37.6692C62.9428 37.1947 62.8069 36.5597 62.3318 36.2521ZM29.5487 28.5654L26.4976 30.5403V24.0498H29.5487V28.5654Z" fill="#434449"></path>
  <path d="M32.0379 47.773C32.2113 48.1222 32.5669 48.3431 32.9565 48.3431H36.7621V56.3742C36.7621 56.8148 37.0433 57.2061 37.461 57.3467C37.5682 57.3824 37.6783 57.3994 37.7873 57.3994C38.1025 57.3994 38.4077 57.2541 38.6051 56.9935L47.9644 44.6154C48.1993 44.3043 48.2379 43.889 48.0645 43.5398C47.8911 43.1924 47.5361 42.9716 47.1471 42.9716H42.8418L43.638 34.733C43.6819 34.2778 43.4183 33.8472 42.9912 33.6803C42.5653 33.5133 42.0791 33.648 41.8014 34.013L32.141 46.6963C31.9055 47.0068 31.8651 47.4245 32.0379 47.773ZM41.2507 38.1209L40.6924 43.8978C40.6649 44.186 40.7598 44.4719 40.9537 44.6863C41.1482 44.9001 41.4241 45.0214 41.7129 45.0214H45.0862L38.8131 53.3191V47.3178C38.8131 46.7513 38.3544 46.2926 37.7879 46.2926H35.0263L41.2507 38.1209Z" fill="#434449"></path>
</svg>
