<?xml version="1.0" encoding="UTF-8"?>
<svg xmlns="http://www.w3.org/2000/svg" width="81" height="80" viewBox="0 0 81 80" fill="none">
  <rect x="0.333374" width="80" height="80" rx="40" fill="#DAA622"></rect>
  <path d="M40.8333 34.0455C38.6662 30.1225 35.2614 27.5509 30.8696 27.5509C24.2707 27.5509 19.4993 33.0389 19.4993 39.7732C19.4993 47.8965 27.5858 54 34.7299 59.996C35.8505 60.9366 37.0094 61.9092 38.2123 62.9324C39.8912 64.3606 42.4105 64.3524 44.0723 62.9135C56.4925 52.1611 62.1673 47.3149 62.1673 39.7731C62.1673 33.0425 57.3992 27.5508 50.7971 27.5508C46.4039 27.551 42.9997 30.1241 40.8333 34.0455ZM40.8333 38.595C42.3843 38.595 43.6462 39.8568 43.6462 41.4078C43.6462 42.9589 42.3843 44.2207 40.8333 44.2207C39.2823 44.2207 38.0204 42.9589 38.0204 41.4078C38.0204 39.8568 39.2823 38.595 40.8333 38.595ZM42.2312 60.7869C41.6098 61.3251 40.6655 61.3265 40.0348 60.79C38.8249 59.7607 35.3087 56.8095 34.7178 56.3113C35.0542 56.1257 35.3701 55.8923 35.6532 55.609C36.473 54.7892 36.9201 53.6514 36.88 52.4872C36.8604 51.9179 36.7246 51.3629 36.4898 50.8539C37.8328 50.1921 39.3107 49.8465 40.8333 49.8465C42.4202 49.8465 43.9534 50.2207 45.3379 50.9356C44.5859 52.5115 44.8427 54.4385 46.1482 55.744C46.4561 56.0518 46.8006 56.3002 47.1673 56.4932C45.6739 57.8064 44.0317 59.2283 42.2312 60.7869ZM50.7972 30.3638C55.6756 30.3638 59.3545 34.409 59.3545 39.7733C59.3545 44.3842 56.5718 47.9691 50.1466 53.8316C49.9589 53.8898 48.9892 54.6068 48.1374 53.755C47.5683 53.1859 47.6071 52.245 48.2034 51.703C53.853 46.5688 56.5417 43.4662 56.5417 39.7201H53.7288C53.7288 41.9759 52.1261 44.2441 47.2368 48.7726C45.3007 47.6329 43.1096 47.0336 40.8333 47.0336C38.6196 47.0336 36.4793 47.6032 34.579 48.6863C30.4556 45.0274 27.9377 42.2103 27.9377 39.7201H25.1248C25.1248 43.459 28.2243 46.8894 33.5781 51.5513C34.1974 52.0906 34.2391 53.0451 33.6642 53.62C32.7854 54.4986 31.6281 53.675 31.6375 53.6747C25.88 48.6359 22.3121 44.639 22.3121 39.7733C22.3121 34.409 25.991 30.3638 30.8696 30.3638C35.296 30.3638 37.6812 33.8603 38.7743 36.1741C36.6881 36.9977 35.2076 39.0326 35.2076 41.4079C35.2076 44.51 37.7313 47.0337 40.8333 47.0337C43.9354 47.0337 46.4591 44.51 46.4591 41.4079C46.4591 39.0326 44.9785 36.9978 42.8923 36.1741C43.9854 33.8602 46.3706 30.3638 50.7972 30.3638Z" fill="white"></path>
  <path d="M28.1754 16C26.6703 16 25.2522 16.6072 24.1826 17.7098C23.1296 18.7951 22.5497 20.219 22.5497 21.7195C22.5497 24.8215 25.0734 27.3453 28.1754 27.3453C31.2775 27.3453 33.8012 24.8215 33.8012 21.7195C33.8012 20.219 33.2213 18.7951 32.1683 17.7098C31.0987 16.6072 29.6806 16 28.1754 16ZM28.1754 24.5324C26.6244 24.5324 25.3626 23.2705 25.3626 21.7195C25.3626 20.1439 26.6507 18.8129 28.1754 18.8129C29.7002 18.8129 30.9883 20.1439 30.9883 21.7195C30.9883 23.2705 29.7264 24.5324 28.1754 24.5324Z" fill="white"></path>
  <path d="M59.117 21.7195C59.117 20.219 58.5371 18.7951 57.4841 17.7098C56.4145 16.6072 54.9964 16 53.4912 16C51.9861 16 50.568 16.6072 49.4984 17.7098C48.4454 18.7951 47.8655 20.219 47.8655 21.7195C47.8655 24.8215 50.3892 27.3453 53.4912 27.3453C56.5933 27.3453 59.117 24.8215 59.117 21.7195ZM50.6784 21.7195C50.6784 20.1439 51.9665 18.8129 53.4912 18.8129C55.016 18.8129 56.3041 20.1439 56.3041 21.7195C56.3041 23.2705 55.0422 24.5324 53.4912 24.5324C51.9402 24.5324 50.6784 23.2705 50.6784 21.7195Z" fill="white"></path>
</svg>
