<?xml version="1.0" encoding="UTF-8"?>
<svg xmlns="http://www.w3.org/2000/svg" width="81" height="80" viewBox="0 0 81 80" fill="none">
  <rect x="0.333313" width="80" height="80" rx="40" fill="#DAA622"></rect>
  <path d="M22.3333 59.9995V59.4995V48.5394V47.7724L23.0351 48.082L24.5983 48.7716L22.3333 59.9995ZM22.3333 59.9995H22.8333M22.3333 59.9995H22.8333M22.8333 59.9995H58.8333H58.8352H59.3352L59.3352 59.4994L59.3344 48.8698L59.3344 48.1028L58.6326 48.4124L57.8181 48.7717L22.8333 59.9995ZM31.6458 47.662L31.8476 47.751L34.1608 48.7716L31.6458 47.662ZM31.6458 47.662L31.444 47.751M31.6458 47.662L31.444 47.751M31.444 47.751L29.1309 48.7716L31.444 47.751ZM41.2083 47.662L41.4102 47.7511L43.7232 48.7716C44.4374 49.0859 45.2091 49.2482 45.9894 49.2482C46.7696 49.2482 47.5414 49.0859 48.2556 48.7716L50.569 47.751L50.7708 47.662L50.9727 47.7511L53.2857 48.7717C53.2859 48.7718 53.2861 48.7718 53.2862 48.7719C54.0003 49.086 54.7718 49.2482 55.5519 49.2482C56.332 49.2482 57.1036 49.086 57.8177 48.7719L41.2083 47.662ZM41.2083 47.662L41.0065 47.751M41.2083 47.662L41.0065 47.751M41.0065 47.751L38.6934 48.7716C38.6933 48.7716 38.6932 48.7717 38.6932 48.7717C37.979 49.0859 37.2073 49.2482 36.4271 49.2482C35.647 49.2482 34.8754 49.0859 34.1613 48.7718L41.0065 47.751ZM34.5833 37.1932V28.6932H37.8318H38.8312L38.232 27.8934C37.2524 26.5859 36.7259 24.9946 36.7325 23.3609V23.3588C36.7325 20.9165 37.8895 18.6456 39.7116 17.4197L39.7116 17.4197L40.2698 17.0441L40.828 17.4197L40.828 17.4197C42.6498 18.6454 43.8071 20.9165 43.8071 23.3588L43.8071 23.3609C43.8139 24.9946 43.2876 26.5859 42.3081 27.8935L41.7091 28.6933H42.7083H45.5833V37.1933V37.6933H46.0833H56.3952C57.7044 37.6947 58.9596 38.2155 59.8853 39.1412C60.8111 40.067 61.3318 41.3221 61.3333 42.6313V59.4989C61.3326 60.1619 61.0689 60.7975 60.6001 61.2663C60.1313 61.735 59.4957 61.9987 58.8328 61.9995H22.8339C22.1709 61.9987 21.5353 61.735 21.0665 61.2663C20.5978 60.7975 20.3341 60.1621 20.3333 59.4992V42.6309C20.3349 41.3218 20.8556 40.0668 21.7813 39.1411C22.707 38.2154 23.9622 37.6946 25.2714 37.6932H34.0833H34.5833V37.1932ZM39.4325 17.0048C37.4583 18.333 36.2325 20.7677 36.2325 23.3588L39.4325 17.0048ZM40.6593 19.9555L40.2698 19.4716L39.8803 19.9555C39.1481 20.8653 38.7325 22.0825 38.7325 23.3588C38.7325 24.6351 39.1481 25.8527 39.8803 26.7624L40.2698 27.2462L40.6593 26.7624C41.3916 25.8527 41.8071 24.6351 41.8071 23.3589C41.8071 22.0827 41.3916 20.8653 40.6593 19.9555ZM37.0833 30.6933H36.5833V31.1933V37.1933V37.6933H37.0833H43.0833H43.5833V37.1933V31.1933V30.6933H43.0833H37.0833ZM22.3333 42.6302V42.6308V45.2604V45.5864L22.6315 45.7179L25.4062 46.9419L25.4066 46.9421C25.8661 47.1443 26.3627 47.2487 26.8648 47.2487C27.3668 47.2487 27.8634 47.1443 28.3229 46.9421L28.3233 46.9419L31.6458 45.4761L34.968 46.9419L34.9685 46.9421C35.428 47.1443 35.9245 47.2487 36.4266 47.2487C36.9286 47.2487 37.4252 47.1443 37.8847 46.9421L37.8851 46.9419L41.2083 45.476L44.5305 46.942L44.531 46.9422C44.9905 47.1444 45.4871 47.2488 45.9891 47.2488C46.4911 47.2488 46.9877 47.1444 47.4472 46.9422L47.4476 46.942L50.7708 45.4761L54.0931 46.9421L54.0936 46.9423C54.5531 47.1445 55.0496 47.2489 55.5516 47.2489C56.0537 47.2489 56.5502 47.1445 57.0097 46.9423L57.0102 46.9421L59.0352 46.0485L59.3333 45.917V45.5911V42.6308V42.6302C59.3324 41.8515 59.0227 41.105 58.4721 40.5544C57.9215 40.0039 57.175 39.6941 56.3964 39.6933H56.3958H25.2708H25.2702C24.4916 39.6941 23.7451 40.0039 23.1945 40.5544C22.6439 41.105 22.3342 41.8515 22.3333 42.6302ZM26.8646 49.2482C26.0844 49.2482 25.3128 49.0859 24.5987 48.7718L29.1304 48.7718C28.4163 49.0859 27.6447 49.2482 26.8646 49.2482Z" fill="white" stroke="white"></path>
</svg>
