<?xml version="1.0" encoding="UTF-8"?>
<svg xmlns="http://www.w3.org/2000/svg" width="81" height="80" viewBox="0 0 81 80" fill="none">
  <rect x="0.666687" width="80" height="80" rx="40" fill="#DAA622"></rect>
  <path d="M60.2061 28.75L55.5811 47.25H30.7523L26.1273 28.75H60.2061Z" stroke="white" stroke-width="1.5"></path>
  <path d="M20.1667 22H23.6667L25.1667 28M25.1667 28L30.1667 48H56.1667L61.1667 28H25.1667Z" stroke="white" stroke-width="1.5" stroke-linecap="round" stroke-linejoin="round"></path>
  <path d="M30.1667 58C31.8235 58 33.1667 56.6569 33.1667 55C33.1667 53.3431 31.8235 52 30.1667 52C28.5098 52 27.1667 53.3431 27.1667 55C27.1667 56.6569 28.5098 58 30.1667 58Z" stroke="white" stroke-width="1.5" stroke-linecap="round" stroke-linejoin="round"></path>
  <path d="M56.1667 58C57.8235 58 59.1667 56.6569 59.1667 55C59.1667 53.3431 57.8235 52 56.1667 52C54.5098 52 53.1667 53.3431 53.1667 55C53.1667 56.6569 54.5098 58 56.1667 58Z" stroke="white" stroke-width="1.5" stroke-linecap="round" stroke-linejoin="round"></path>
  <path d="M39.1667 38H47.1667M43.1667 42V34" stroke="white" stroke-width="1.5" stroke-linecap="round" stroke-linejoin="round"></path>
</svg>
