<?xml version="1.0" encoding="UTF-8"?>
<svg xmlns="http://www.w3.org/2000/svg" width="80" height="80" viewBox="0 0 80 80" fill="none">
  <rect width="80" height="80" rx="40" fill="#DAA622"></rect>
  <path d="M29.4969 51.5H29.9969H50.9969H51.4969V52V55C51.4969 55.752 51.2547 56.4839 50.8062 57.0875C50.3577 57.6911 49.7268 58.1341 49.0068 58.3511C48.2868 58.5681 47.5161 58.5474 46.8088 58.2921C46.1015 58.0368 45.4952 57.5605 45.0797 56.9338M29.4969 51.5L45.4964 56.6575M29.4969 51.5V52V55C29.497 55.752 29.7392 56.4839 30.1877 57.0875C30.6362 57.6911 31.2671 58.1341 31.9871 58.3511C32.7071 58.5681 33.4778 58.5474 34.1851 58.2921C34.8924 58.0368 35.4987 57.5605 35.9142 56.9338L35.4974 56.6575M29.4969 51.5L40.4969 58M45.0797 56.9338L45.4964 56.6575M45.0797 56.9338C45.0798 56.9339 45.0799 56.934 45.0799 56.9341L45.4964 56.6575M45.0797 56.9338C44.9885 56.7966 44.8648 56.684 44.7196 56.6061C44.5742 56.5282 44.4119 56.4874 44.2469 56.4874C44.082 56.4874 43.9197 56.5282 43.7743 56.6061C43.629 56.6841 43.5052 56.7968 43.4139 56.9341L43.4137 56.9345C42.7851 57.8792 41.7141 58.4999 40.4973 58.5M45.4964 56.6575C45.3596 56.4514 45.1739 56.2824 44.9559 56.1655C44.7379 56.0486 44.4943 55.9874 44.2469 55.9874C43.9996 55.9874 43.756 56.0486 43.538 56.1655C43.32 56.2824 43.1343 56.4514 42.9974 56.6575C42.4574 57.469 41.5394 58 40.4969 58M40.4973 58.5L40.4969 58M40.4973 58.5C40.4972 58.5 40.4971 58.5 40.4969 58.5V58M40.4973 58.5C39.9194 58.5005 39.3503 58.3576 38.8411 58.0842L39.0776 57.6437L38.8411 58.0842C38.3319 57.8108 37.8984 57.4155 37.5795 56.9335M35.4974 56.6575C35.1413 57.1947 34.6216 57.603 34.0154 57.8218C33.4091 58.0406 32.7485 58.0583 32.1314 57.8724C31.5142 57.6864 30.9734 57.3066 30.589 56.7893C30.2046 56.2719 29.997 55.6445 29.9969 55V52.5V52L35.4974 56.6575ZM35.4974 56.6575L35.9139 56.9341C36.0052 56.7968 36.129 56.6841 36.2743 56.6061C36.4197 56.5282 36.582 56.4874 36.7469 56.4874C36.9119 56.4874 37.0742 56.5282 37.2196 56.6061C37.3647 56.684 37.4883 56.7964 37.5795 56.9335M37.5795 56.9335C37.5795 56.9335 37.5795 56.9334 37.5795 56.9334L37.9964 56.6575L37.5799 56.9341C37.5798 56.9339 37.5797 56.9337 37.5795 56.9335ZM36.7493 19.5H36.7499H44.2498C44.2499 19.5 44.2499 19.5 44.2499 19.5C45.0116 19.5002 45.7489 19.7679 46.3333 20.2564C46.9177 20.7449 47.312 21.4231 47.4473 22.1727C47.5826 22.9223 47.4503 23.6955 47.0736 24.3575C46.6968 25.0195 46.0995 25.5281 45.386 25.7946L44.9883 25.9431L45.0704 26.3597C45.4024 28.0447 46.5249 29.3966 48.0713 30.9265L48.0985 30.9534L48.1296 30.9759C49.7922 32.1806 51.1454 33.7625 52.0782 35.5916C53.0109 37.4207 53.4966 39.445 53.4954 41.4982V41.4985V54.9999C53.4954 55 53.4954 55 53.4954 55C53.4953 56.0361 53.2025 57.0511 52.6507 57.9281C52.099 58.8051 51.3107 59.5084 50.3767 59.957C49.4427 60.4056 48.401 60.5813 47.3715 60.4638C46.3421 60.3462 45.3668 59.9403 44.5579 59.2927L44.2453 59.0424L43.9328 59.2928C42.9919 60.0466 41.7963 60.5 40.4954 60.5H40.4948C39.2453 60.5016 38.0327 60.0757 37.0586 59.2932L36.746 59.0421L36.4329 59.2927C35.6241 59.9403 34.6488 60.3462 33.6193 60.4638C32.5899 60.5813 31.5482 60.4056 30.6142 59.957C29.6802 59.5084 28.8919 58.8051 28.3401 57.9281C27.7884 57.0511 27.4956 56.0361 27.4954 55C27.4954 55 27.4954 55 27.4954 54.9999V41.8H27.4956L27.4953 41.7884C27.4217 38.6151 28.5159 35.5253 30.5701 33.1056L30.5706 33.105C31.0864 32.4954 31.6571 31.9345 32.2754 31.4292L32.2916 31.4159L32.3067 31.4013C34.1154 29.6506 35.4551 28.1916 35.8031 26.3057L35.8766 25.9078L35.5026 25.753C34.8075 25.4653 34.2337 24.9454 33.8791 24.2819C33.5245 23.6183 33.411 22.8523 33.5581 22.1145C33.7052 21.3767 34.1038 20.7128 34.6857 20.236C35.2677 19.7592 35.997 19.4991 36.7493 19.5ZM34.4014 32.1464L33.5478 33H34.7549H45.9011H46.1084H46.1099V32.5V32.4985L46.4623 32.1468C44.9431 30.6246 43.5289 28.9458 43.1 26.706L43.0223 26.3H42.6089H38.2514H37.8379L37.7603 26.7062C37.3343 28.9359 35.9268 30.621 34.4014 32.1464ZM31.8779 35H31.6171L31.4679 35.214C30.2246 36.9963 29.4969 39.1626 29.4969 41.5V41.6556C29.496 41.7054 29.496 41.7552 29.4969 41.8049V49V49.5H29.9969H50.9969H51.4969V49V41.8H51.497L51.4969 41.7908L51.4955 41.7199C51.5459 39.3972 50.8561 37.1186 49.5259 35.2137L49.3766 35H49.1159H31.8779ZM35.8661 21.8661C35.6316 22.1005 35.4999 22.4185 35.4999 22.75C35.4999 23.0815 35.6316 23.3995 35.8661 23.6339C36.1005 23.8683 36.4184 24 36.7499 24H44.2499C44.5815 24 44.8994 23.8683 45.1338 23.6339C45.3682 23.3995 45.4999 23.0815 45.4999 22.75C45.4999 22.4185 45.3682 22.1005 45.1338 21.8661C44.8994 21.6317 44.5815 21.5 44.2499 21.5H36.7499C36.4184 21.5 36.1005 21.6317 35.8661 21.8661Z" fill="white" stroke="white"></path>
</svg>
