<?xml version="1.0" encoding="UTF-8"?>
<svg xmlns="http://www.w3.org/2000/svg" width="80" height="80" viewBox="0 0 80 80" fill="none">
  <rect width="80" height="80" rx="40" fill="#DAA622"></rect>
  <path d="M40.1007 61.5H34.5007C23.6407 61.5 19.0007 56.86 19.0007 46V34C19.0007 23.14 23.6407 18.5 34.5007 18.5H46.5007C57.3607 18.5 62.0007 23.14 62.0007 34V39.6C62.0007 40.42 61.3207 41.1 60.5007 41.1C59.6807 41.1 59.0007 40.42 59.0007 39.6V34C59.0007 24.78 55.7207 21.5 46.5007 21.5H34.5007C25.2807 21.5 22.0007 24.78 22.0007 34V46C22.0007 55.22 25.2807 58.5 34.5007 58.5H40.1007C40.9207 58.5 41.6007 59.18 41.6007 60C41.6007 60.82 40.9207 61.5 40.1007 61.5Z" fill="white"></path>
  <path d="M30.5015 45.3809C29.6815 45.3809 29.0015 44.7009 29.0015 43.8809V37.4609C29.0015 36.6409 29.6815 35.9609 30.5015 35.9609C31.3215 35.9609 32.0015 36.6409 32.0015 37.4609V43.8809C32.0015 44.7209 31.3215 45.3809 30.5015 45.3809Z" fill="white"></path>
  <path d="M50.5007 45.3809C49.6807 45.3809 49.0007 44.7009 49.0007 43.8809V37.4609C49.0007 36.6409 49.6807 35.9609 50.5007 35.9609C51.3207 35.9609 52.0007 36.6409 52.0007 37.4609V43.8809C52.0007 44.7209 51.3207 45.3809 50.5007 45.3809Z" fill="white"></path>
  <path d="M52.3625 60.6056C51.9625 60.6056 51.5825 60.4456 51.3025 60.1656L45.7425 54.6256C45.1625 54.0456 45.1425 53.0856 45.7425 52.5056C46.3225 51.9256 47.2825 51.9056 47.8625 52.5056L52.2825 56.9056L60.4825 47.7256C61.0225 47.0856 61.9625 47.0256 62.6025 47.5656C63.2225 48.1056 63.3025 49.0456 62.7625 49.6856L53.5225 60.0856C53.2425 60.4056 52.8625 60.5856 52.4425 60.6056C52.4025 60.6056 52.3825 60.6056 52.3625 60.6056Z" fill="white"></path>
  <path d="M40.5 44.5C39.68 44.5 39 43.82 39 43V37C39 36.18 39.68 35.5 40.5 35.5C41.32 35.5 42 36.18 42 37V43C42 43.82 41.32 44.5 40.5 44.5Z" fill="white"></path>
</svg>
