<?xml version="1.0" encoding="UTF-8"?>
<svg xmlns="http://www.w3.org/2000/svg" width="81" height="80" viewBox="0 0 81 80" fill="none">
  <rect x="0.5" width="80" height="80" rx="40" fill="#DAA622"></rect>
  <g clip-path="url(#clip0_7587_12661)">
    <path d="M28.081 35.5391C30.627 35.5391 32.699 37.6107 32.699 40.1561C32.699 42.7013 30.627 44.7731 28.081 44.7731C25.5356 44.7731 23.464 42.7015 23.464 40.1561C23.464 37.6106 25.5356 35.5391 28.081 35.5391ZM28.081 36.4141C26.0173 36.4141 24.339 38.0924 24.339 40.1561C24.339 42.2198 26.0173 43.898 28.081 43.898C30.1452 43.898 31.8239 42.2199 31.8239 40.1561C31.8239 38.0922 30.1452 36.4141 28.081 36.4141Z" fill="white" stroke="white"></path>
    <path d="M29.0504 51.9963C30.1981 51.9963 31.2145 51.2233 31.5228 50.1146L31.7984 49.115C31.8143 49.0574 31.8547 49.0096 31.9059 48.9874C32.5804 48.695 33.2226 48.3233 33.8135 47.8838C33.8599 47.8495 33.9225 47.8381 33.982 47.8536L34.9885 48.1144C36.1008 48.4014 37.2784 47.9081 37.853 46.9139L38.8201 45.2371C39.3945 44.2429 39.2336 42.9761 38.4278 42.1555L37.699 41.4154C37.6563 41.3714 37.6355 41.3138 37.6422 41.2563C37.7262 40.5253 37.7261 39.7829 37.6421 39.0519C37.6355 38.9952 37.6561 38.938 37.6988 38.8946L38.4288 38.1525C39.2336 37.333 39.3945 36.0661 38.8204 35.0723L37.8525 33.3945C37.2782 32.4008 36.1006 31.9073 34.9878 32.1947L33.9809 32.4555C33.9222 32.4706 33.8597 32.4595 33.8146 32.426C33.2224 31.9855 32.5802 31.6139 31.9062 31.3217C31.8545 31.2993 31.8142 31.2515 31.7982 31.1937L31.5221 30.1923C31.2144 29.0855 30.198 28.3125 29.0503 28.3125H27.1134C25.9643 28.3125 24.9477 29.086 24.6413 30.1936L24.3647 31.1942C24.3488 31.2515 24.3088 31.299 24.257 31.3214C23.5835 31.6133 22.9412 31.9848 22.347 32.426C22.3019 32.4596 22.2402 32.4705 22.1809 32.4552L21.1744 32.1945C20.0627 31.9074 18.8853 32.401 18.3111 33.3947L17.3433 35.0709C16.7672 36.0654 16.9285 37.3329 17.7354 38.153L18.463 38.8927C18.5063 38.9369 18.5274 38.9949 18.5206 39.0527C18.4365 39.7842 18.4369 40.5267 18.5207 41.2581C18.5272 41.3138 18.5061 41.3724 18.4639 41.4153L17.7355 42.1558C16.9285 42.9762 16.7672 44.2436 17.3425 45.2367L18.3112 46.9143C18.8853 47.908 20.0629 48.4015 21.1749 48.1141L22.1816 47.8533C22.2401 47.8383 22.302 47.8491 22.3479 47.8833C22.9412 48.3239 23.5836 48.6953 24.2575 48.9875C24.3095 49.01 24.3485 49.0564 24.3649 49.1159L24.6414 50.1152C24.9478 51.2226 25.9643 51.9962 27.1135 51.9962H29.0504V51.9963ZM26.4486 49.6153L26.1723 48.617C26.0046 48.0082 25.5782 47.5161 25.0029 47.2671C24.4611 47.0322 23.944 46.7331 23.4664 46.3784C22.9661 46.0061 22.314 45.8817 21.7108 46.0384L20.7054 46.2987C20.406 46.3767 20.0892 46.2435 19.9349 45.9765L18.9657 44.2981C18.8114 44.0316 18.8552 43.6914 19.0723 43.4707L19.8004 42.7304C20.2432 42.2808 20.4557 41.6655 20.3835 41.0434C20.316 40.4546 20.3157 39.8564 20.3834 39.2676C20.4554 38.6454 20.2434 38.0303 19.8009 37.579L19.0723 36.8382C18.8552 36.6176 18.8114 36.2774 18.9665 36.0099L19.9349 34.3328C20.0893 34.0654 20.406 33.9326 20.705 34.0101L21.71 34.2704C22.3222 34.4299 22.9624 34.3058 23.4659 33.9311C23.9441 33.5761 24.4612 33.2769 25.0026 33.0422C25.578 32.7932 26.0043 32.3017 26.1722 31.6939L26.4488 30.6936C26.5312 30.3958 26.8046 30.1877 27.1137 30.1877H29.0506C29.3593 30.1877 29.6328 30.3962 29.7153 30.6929L29.9909 31.692C30.1584 32.3 30.5844 32.7919 31.1602 33.0419C31.7026 33.2771 32.2192 33.5761 32.6968 33.9313C33.2017 34.3057 33.8418 34.4292 34.4524 34.2706L35.4578 34.0102C35.7578 33.9326 36.0749 34.0654 36.2291 34.3323L37.1969 36.0101C37.3514 36.2774 37.308 36.6182 37.0918 36.8383L36.3627 37.5796C35.9201 38.0292 35.7076 38.6444 35.7797 39.2668C35.8473 39.8552 35.8474 40.4531 35.7798 41.0415C35.7077 41.6639 35.9198 42.279 36.3615 42.7293C36.3619 42.7298 36.3624 42.7302 36.3628 42.7306L37.0912 43.4703C37.3079 43.691 37.3513 44.0318 37.1965 44.2998L36.2293 45.9765C36.0748 46.2438 35.7577 46.3766 35.4582 46.2991L34.453 46.0388C33.8417 45.8802 33.2017 46.0034 32.6957 46.3786C32.2191 46.7331 31.7024 47.0322 31.1597 47.2674C30.5843 47.5172 30.1582 48.0092 29.9908 48.617L29.7156 49.6146C29.6326 49.9131 29.3591 50.1215 29.0503 50.1215H27.1134C26.8044 50.1212 26.531 49.9132 26.4486 49.6153Z" fill="white"></path>
    <path d="M62.2812 46.0763V30.7952C62.2812 29.3185 61.0798 28.1172 59.6031 28.1172H46.3914C44.9147 28.1172 43.7134 29.3185 43.7134 30.7952V44.6196C43.7134 45.1373 44.1332 45.5572 44.6509 45.5572C45.1686 45.5572 45.5884 45.1373 45.5884 44.6196V30.7952C45.5884 30.3524 45.9487 29.9922 46.3914 29.9922H59.603C60.0458 29.9922 60.406 30.3525 60.406 30.7952V45.1607C59.7098 44.9543 58.9772 44.8674 58.2522 44.9038C55.408 45.0446 52.9287 47.1335 52.3075 49.9129H46.3914C45.9486 49.9129 45.5884 49.5526 45.5884 49.1099V44.1397C45.5884 43.622 45.1686 43.2022 44.6509 43.2022C44.1332 43.2022 43.7134 43.622 43.7134 44.1397V49.1099C43.7134 50.5866 44.9147 51.7879 46.3914 51.7879H52.1722C52.4134 55.1114 55.1926 57.7422 58.5765 57.7422C62.1183 57.7422 64.9999 54.8608 64.9999 51.3189C65 49.156 63.9244 47.2408 62.2812 46.0763ZM58.5766 55.867C56.0687 55.867 54.0283 53.8267 54.0283 51.3188C54.0283 48.8326 56.1386 46.7469 58.6247 46.7717C61.0822 46.7979 63.1248 48.8615 63.1248 51.3188C63.1249 53.8267 61.0846 55.867 58.5766 55.867Z" fill="white"></path>
    <path d="M49.3433 35.6563H56.7497C57.2674 35.6563 57.6873 35.2365 57.6873 34.7188C57.6873 34.2011 57.2674 33.7812 56.7497 33.7812H49.3433C48.8256 33.7812 48.4058 34.2011 48.4058 34.7188C48.4058 35.2365 48.8255 35.6563 49.3433 35.6563Z" fill="white"></path>
    <path d="M49.3433 40.8829H56.7497C57.2674 40.8829 57.6873 40.463 57.6873 39.9453C57.6873 39.4276 57.2674 39.0078 56.7497 39.0078H49.3433C48.8256 39.0078 48.4058 39.4276 48.4058 39.9453C48.4058 40.463 48.8255 40.8829 49.3433 40.8829Z" fill="white"></path>
    <path d="M49.3433 46.3047H51.8146C52.3323 46.3047 52.7521 45.8849 52.7521 45.3672C52.7521 44.8495 52.3323 44.4297 51.8146 44.4297H49.3433C48.8256 44.4297 48.4058 44.8495 48.4058 45.3672C48.4058 45.8849 48.8255 46.3047 49.3433 46.3047Z" fill="white"></path>
    <path d="M59.726 49.7276L57.8333 51.6204L57.2455 51.0327C56.8793 50.6667 56.2857 50.6667 55.9196 51.0327C55.5535 51.3989 55.5535 51.9924 55.9196 52.3586L57.1703 53.6092C57.3534 53.7922 57.5933 53.8838 57.8332 53.8838C58.0731 53.8838 58.313 53.7922 58.4961 53.6092L61.0518 51.0535C61.4179 50.6874 61.4179 50.0937 61.0518 49.7276C60.6856 49.3616 60.0922 49.3616 59.726 49.7276Z" fill="white"></path>
    <path d="M50.5526 55.9419C47.3406 58.1393 43.5778 59.3009 39.6707 59.3009C36.0903 59.3009 32.6749 58.3425 29.6718 56.513L31.0536 56.293C31.565 56.2115 31.9135 55.7311 31.8321 55.2197C31.7507 54.7083 31.27 54.361 30.7588 54.4412L27.0832 55.0264C26.5376 55.1134 26.1854 55.6715 26.3251 56.2024L27.059 59.7109C27.1636 60.2104 27.6687 60.5412 28.1686 60.4365C28.6754 60.3305 29.0004 59.8337 28.8943 59.3268L28.6326 58.0756C31.9441 60.11 35.7158 61.1759 39.6706 61.1759C43.9571 61.1759 48.086 59.9011 51.6112 57.4894C52.0387 57.1971 52.1481 56.6136 51.8556 56.1863C51.5634 55.7589 50.9799 55.6495 50.5526 55.9419Z" fill="white"></path>
    <path d="M26.8197 25.3083C27.0294 25.3083 27.2404 25.2383 27.415 25.0946C30.8549 22.2628 35.2074 20.7032 39.6708 20.7032C43.3976 20.7032 47.0467 21.7913 50.1522 23.7986L48.6999 24.0297C48.1886 24.1111 47.8399 24.5916 47.9213 25.1029C48.0016 25.6075 48.4902 25.9612 48.9945 25.8815L52.6697 25.2967C53.1899 25.2136 53.549 24.6956 53.4401 24.1789L52.6943 20.612C52.5884 20.1052 52.0921 19.7801 51.5847 19.8862C51.078 19.9922 50.7529 20.489 50.859 20.9958L51.1074 22.184C47.7137 20.0074 43.7343 18.8281 39.6709 18.8281C34.7739 18.8281 29.9982 20.5395 26.2234 23.6469C25.8237 23.9761 25.7664 24.5668 26.0954 24.9666C26.2807 25.1919 26.5491 25.3083 26.8197 25.3083Z" fill="white"></path>
  </g>
  <defs>
    <clipPath id="clip0_7587_12661">
      <rect width="48" height="48" fill="white" transform="translate(17 16)"></rect>
    </clipPath>
  </defs>
</svg>
