<?xml version="1.0" encoding="UTF-8"?>
<svg xmlns="http://www.w3.org/2000/svg" width="81" height="80" viewBox="0 0 81 80" fill="none">
  <rect x="0.5" width="80" height="80" rx="40" fill="#DAA622"></rect>
  <g clip-path="url(#clip0_7587_24356)">
    <path d="M54.707 54.6656L54.707 54.6656C54.5183 54.5213 54.2485 54.5573 54.104 54.7462L54.707 54.6656ZM54.707 54.6656L55.6167 55.361L55.9822 55.6404L56.291 55.2994L58.7548 52.5789C58.7548 52.5789 58.7548 52.5789 58.7548 52.5789C58.9142 52.4028 59.1864 52.3894 59.3624 52.5488L59.3625 52.5488M54.707 54.6656L59.3625 52.5488M59.3625 52.5488C59.5384 52.7082 59.552 52.9802 59.3924 53.1565L56.3542 56.5111C56.3542 56.5111 56.3542 56.5111 56.3542 56.5112C56.2697 56.6044 56.1535 56.6526 56.035 56.6526C55.9434 56.6526 55.8522 56.6238 55.7742 56.5641C55.7742 56.5641 55.7742 56.5641 55.7742 56.5641L54.1846 55.3493M59.3625 52.5488L54.1846 55.3493M54.1846 55.3493L54.1846 55.3493C53.9958 55.2049 53.9598 54.935 54.104 54.7463L54.1846 55.3493Z" fill="white" stroke="white"></path>
    <path d="M64.8868 49.303C64.8762 48.8287 64.5104 48.4386 64.0379 48.3973C61.8252 48.2039 59.1022 46.7175 57.1006 44.6108C56.925 44.4261 56.6813 44.3214 56.4265 44.3213C56.1718 44.3213 55.9279 44.4258 55.7523 44.6103C54.8538 45.5547 53.8109 46.3739 52.7347 47.0084C50.8463 44.9003 48.522 43.3471 45.7978 42.3694C45.7741 42.3598 45.7501 42.3512 45.7256 42.3436C45.5134 42.2684 45.2987 42.1967 45.0817 42.1285C47.3855 39.8308 48.9352 36.8113 48.9352 34.1025V32.6411C50.0242 32.1669 50.788 31.0799 50.788 29.8174C50.788 28.506 49.9626 27.3843 48.8042 26.9429C48.3261 22.3013 45.0559 18.3995 40.5639 17.1086C40.4312 16.4763 39.8694 16 39.1984 16H35.8278C35.1806 16 34.6365 16.4435 34.4795 17.0423C32.2699 17.6315 30.2516 18.8893 28.7384 20.638C27.2025 22.4129 26.2474 24.6295 26.0048 26.9434C24.8459 27.385 24.0202 28.5065 24.0202 29.8175C24.0202 31.0805 24.7851 32.1678 25.8756 32.6417V34.1026C25.8756 36.8088 27.4256 39.8295 29.7293 42.1287C29.5186 42.195 29.31 42.2643 29.1038 42.337C29.0632 42.3485 29.0238 42.3628 28.9854 42.3796C25.9363 43.4795 23.3907 45.3002 21.3972 47.8146C19.4799 50.2328 18.1169 53.2191 17.3462 56.6912C17.0719 57.9321 16.8656 59.4914 17.7117 60.5449C18.5381 61.5739 20.0169 61.7058 21.213 61.7058H38.2068C38.7205 61.7058 39.1369 61.2893 39.1369 60.7757C39.1369 60.262 38.7205 59.8455 38.2068 59.8455H21.213C20.1002 59.8455 19.4102 59.6889 19.1622 59.38C18.8994 59.0527 18.8996 58.2832 19.1624 57.0935C20.1292 52.7392 22.4929 47.4108 28.188 44.7205C28.0129 47.8628 29.7156 49.9168 30.7978 51.2205C30.9635 51.4201 31.2049 51.5414 31.464 51.5552C31.7228 51.5695 31.976 51.4741 32.162 51.2933L37.4042 46.1952L42.649 51.2935C42.823 51.4626 43.0557 51.5566 43.2973 51.5566C43.3139 51.5566 43.3306 51.5562 43.3474 51.5552C43.6065 51.5413 43.848 51.4197 44.0136 51.2198C45.0944 49.9151 46.7945 47.8599 46.6209 44.7241C48.2732 45.5078 49.733 46.556 50.9884 47.8618C50.2387 48.1519 49.5017 48.3373 48.8144 48.3974C48.3422 48.4386 47.9766 48.8284 47.9655 49.3024C47.8876 52.628 48.4419 55.0106 49.9415 57.7993C49.9542 57.823 50.4609 58.7314 51.2506 59.8457H35.7188C35.205 59.8457 34.7886 60.2622 34.7886 60.7759C34.7886 61.2895 35.205 61.706 35.7188 61.706H52.7279C53.8493 62.9454 55.1719 64.0002 56.4261 64.0002C59.4521 64.0002 62.8774 57.8614 62.9103 57.8C64.4075 55.0108 64.9616 52.6285 64.8868 49.303ZM46.9056 26.7421H41.7843C40.8167 24.2146 40.6337 22.1304 40.6008 19.0708C43.9558 20.2574 46.3948 23.2177 46.9056 26.7421ZM36.2924 17.8603H38.7337C38.7396 21.4608 38.8308 23.8993 39.8055 26.7421H35.2224C36.1955 23.8992 36.2866 21.4604 36.2924 17.8603ZM34.4262 18.9974C34.3955 22.0972 34.2176 24.1943 33.2441 26.7422H27.9048C28.4354 23.172 31.0019 20.1313 34.4262 18.9974ZM27.0983 28.6024H33.3209C33.3757 28.6469 33.4287 28.6526 33.4731 28.6024H47.7126C48.3826 28.6024 48.9277 29.1474 48.9277 29.8175C48.9277 30.489 48.3827 31.0353 47.7126 31.0353H27.0983C26.4269 31.0353 25.8806 30.489 25.8806 29.8175C25.8806 29.1475 26.4268 28.6024 27.0983 28.6024ZM27.736 34.1026V32.8955H47.0748V34.1026C47.0748 37.649 43.6391 42.035 39.7224 43.4889C38.0085 44.1258 36.7918 44.1252 35.074 43.4869C31.1649 42.027 27.736 37.6417 27.736 34.1026ZM31.5963 49.2483C30.6336 47.9915 29.7066 46.3414 30.1522 43.9461C30.5625 43.8136 30.9864 43.6928 31.426 43.5859C32.364 44.2741 33.3757 44.8385 34.4244 45.2302C34.762 45.3556 35.0868 45.4589 35.4045 45.5449L31.5963 49.2483ZM43.2136 49.2478L39.403 45.5437C39.7167 45.4586 40.0372 45.3566 40.37 45.2329C41.424 44.8417 42.4406 44.2761 43.3829 43.5857C43.8171 43.6914 44.2418 43.8111 44.6561 43.9453C45.1026 46.3372 44.176 47.989 43.2136 49.2478ZM61.2709 56.9206C60.1709 58.9736 57.5948 62.1397 56.4261 62.1397C55.2574 62.1397 52.6814 58.9736 51.5807 56.9193C50.3515 54.6337 49.847 52.7277 49.8197 50.1325C50.8232 49.9416 51.8678 49.5671 52.8951 49.0441C52.9312 49.0284 52.9664 49.0099 53.0009 48.9893C54.2004 48.3658 55.3735 47.5406 56.4257 46.5599C58.4068 48.4082 60.8186 49.7116 63.0318 50.1326C63.0025 52.7282 62.4981 54.6345 61.2709 56.9206Z" fill="white"></path>
  </g>
  <defs>
    <clipPath id="clip0_7587_24356">
      <rect width="48" height="48" fill="white" transform="translate(17 16)"></rect>
    </clipPath>
  </defs>
</svg>
