<?xml version="1.0" encoding="UTF-8"?>
<svg xmlns="http://www.w3.org/2000/svg" width="81" height="80" viewBox="0 0 81 80" fill="none">
  <rect x="0.5" width="80" height="80" rx="40" fill="#DAA622"></rect>
  <g clip-path="url(#clip0_7587_43638)">
    <path d="M32.379 49.0085L32.4765 48.8945L32.379 49.0085C33.8282 50.2491 34.7539 51.9589 35.08 53.9873C34.3146 54.4755 33.8049 55.328 33.8049 56.2978V57.0755C33.8049 58.2686 34.5757 59.284 35.647 59.6623C35.5332 59.9621 35.4705 60.2865 35.4705 60.6254V61.4031C35.4705 62.9182 36.7132 64.1485 38.2381 64.1485H43.7621C45.287 64.1485 46.5296 62.9182 46.5296 61.4031V60.6254C46.5296 60.2866 46.4669 59.9621 46.3531 59.6623C47.4244 59.284 48.1952 58.2687 48.1952 57.0755V56.2978C48.1952 55.328 47.6856 54.4755 46.9201 53.9873C47.2463 51.9589 48.1721 50.2491 49.6212 49.0085C52.5205 46.5262 54.1847 42.9563 54.1847 39.2133C54.1847 35.7091 52.8366 32.4627 50.3871 30.0748C47.9372 27.6865 44.6023 26.3734 41 26.3734C37.3977 26.3734 34.0628 27.6865 31.613 30.0748C29.1635 32.4627 27.8155 35.7091 27.8155 39.2133C27.8155 42.9562 29.4796 46.5261 32.379 49.0085ZM44.5885 61.403V61.4157C44.5815 61.8502 44.2166 62.2074 43.7621 62.2074H38.238C37.7791 62.2074 37.4115 61.8432 37.4115 61.403V60.6253C37.4115 60.1851 37.7791 59.8208 38.238 59.8208H43.762C44.2208 59.8208 44.5885 60.185 44.5885 60.6253V61.403ZM45.0251 53.5523H43.7534V45.1994H45.2577C46.9022 45.1994 48.2422 43.8728 48.2422 42.2394C48.2422 40.6059 46.9022 39.2794 45.2577 39.2794H44.7969C43.1524 39.2794 41.8124 40.6059 41.8124 42.2394V43.2584H40.2462V42.2394C40.2462 40.6059 38.9062 39.2794 37.2617 39.2794H36.8277C35.1831 39.2794 33.8431 40.6059 33.8431 42.2394C33.8431 43.8729 35.1831 45.1994 36.8277 45.1994H38.3052V53.5523H36.9748C36.5587 51.1261 35.4198 49.0567 33.6411 47.5339C31.1713 45.4194 29.7562 42.3862 29.7562 39.2133C29.7562 33.0016 34.5828 28.3145 40.9998 28.3145C47.4168 28.3145 52.2435 33.0016 52.2435 39.2133C52.2437 42.3862 50.8286 45.4193 48.3588 47.5339C46.58 49.0567 45.4412 51.1261 45.0251 53.5523ZM46.2541 57.0754C46.2541 57.5156 45.8865 57.8798 45.4276 57.8798H43.762H38.238H36.5723C36.1134 57.8798 35.7458 57.5156 35.7458 57.0754V56.2977C35.7458 55.8575 36.1134 55.4933 36.5723 55.4933H45.4276C45.8865 55.4933 46.2541 55.8575 46.2541 56.2977V57.0754ZM38.3053 43.2584H36.8278C36.2495 43.2584 35.7843 42.7982 35.7843 42.2394C35.7843 41.6807 36.2496 41.2204 36.8278 41.2204H37.2618C37.84 41.2204 38.3053 41.6806 38.3053 42.2394V43.2584ZM41.8125 53.5523H40.2463V45.1994H41.8125V53.5523ZM43.7535 43.2584V42.2394C43.7535 41.6806 44.2188 41.2204 44.797 41.2204H45.2578C45.836 41.2204 46.3013 41.6806 46.3013 42.2394C46.3013 42.7983 45.836 43.2584 45.2578 43.2584H43.7535Z" fill="white" stroke="white" stroke-width="0.3"></path>
    <mask id="path-3-outside-1_7587_43638" maskUnits="userSpaceOnUse" x="16.9231" y="15" width="48" height="43" fill="black">
      <rect fill="white" x="16.9231" y="15" width="48" height="43"></rect>
      <path d="M54.1406 57.4908C53.5318 57.4908 52.9414 57.2605 52.4863 56.8067L50.1789 54.5056L51.3377 53.3437L53.645 55.6447C53.9583 55.957 54.3776 55.8654 54.6611 55.6829L57.4896 52.9563C57.7941 52.6483 57.706 52.2383 57.527 51.9584L55.2744 49.7119C54.9942 49.4325 54.9534 48.993 55.1771 48.6668C56.4049 46.8772 57.292 44.7916 57.7425 42.6354C57.822 42.2551 58.1571 41.9827 58.5457 41.9827H61.7551C62.0264 41.9355 62.436 41.741 62.436 41.2691V37.302C62.4006 37.0985 62.2503 36.6247 61.6222 36.6247H58.3534C57.9524 36.6247 57.6102 36.335 57.544 35.9395C57.2036 33.9025 56.3481 31.7893 55.0702 29.8285C54.8582 29.5032 54.9032 29.0737 55.1782 28.7995L57.4856 26.4985C57.7966 26.1882 57.7057 25.7726 57.5237 25.4915L54.7897 22.671C54.4789 22.3653 54.065 22.4538 53.7828 22.6336L51.5301 24.8801C51.2511 25.1584 50.8137 25.1989 50.4882 24.9769C48.6934 23.7522 46.6015 22.8673 44.4386 22.4179C44.0579 22.3389 43.7849 22.0034 43.7849 21.6146V18.3546C43.7849 17.9278 43.4635 17.641 43.1633 17.641H39.1846C38.9134 17.6881 38.5037 17.8827 38.5037 18.3546V21.7103C38.5037 22.1115 38.2136 22.4538 37.8178 22.5197C35.7744 22.8594 33.6548 23.7127 31.6881 24.9875C31.3636 25.1978 30.9362 25.153 30.6625 24.88L28.3551 22.579C28.0419 22.2668 27.6226 22.3583 27.339 22.5408L24.5105 25.2675C24.2061 25.5754 24.2943 25.9854 24.4732 26.2652L26.7259 28.5117C27.0061 28.7911 27.0469 29.2307 26.8231 29.5568C25.5953 31.3464 24.7082 33.432 24.2578 35.5883C24.1783 35.9686 23.8431 36.241 23.4546 36.241H20.2451C19.9739 36.2881 19.5641 36.4827 19.5641 36.9546V40.9215C19.6115 41.1916 19.807 41.599 20.2819 41.599H23.5506C23.9515 41.599 24.2938 41.8887 24.3599 42.2842C24.7003 44.3213 25.5558 46.4345 26.8339 48.3952C27.0459 48.7205 27.0008 49.15 26.7259 49.4242L24.4185 51.7252C24.1074 52.0355 24.1984 52.4511 24.3804 52.7322L27.1145 55.5528C27.4254 55.8584 27.8391 55.7698 28.1214 55.5902L30.3741 53.3436L31.5328 54.5055L29.2255 56.8066C29.1935 56.8385 29.159 56.8677 29.1222 56.8938C28.0963 57.6246 26.7925 57.5493 25.9516 56.7107C25.9483 56.7074 25.9451 56.7041 25.9419 56.7007L23.1538 53.8246C23.1256 53.7955 23.0995 53.7643 23.0758 53.7314C22.3416 52.7063 22.4171 51.4035 23.2596 50.5633L25.1031 48.7249C24.0319 46.9563 23.2703 45.0833 22.8726 43.24H20.2819C19.0754 43.24 18.0861 42.333 17.9295 41.0834C17.9252 41.0495 17.9231 41.0155 17.9231 40.9813V36.9546C17.9231 35.7501 18.8319 34.7625 20.0842 34.6063C20.1179 34.6021 20.1518 34.5999 20.1858 34.5999H22.8003C23.2731 32.6908 24.0562 30.847 25.0932 29.201L23.2597 27.3725C23.2276 27.3406 23.1984 27.3061 23.172 27.2693C22.4378 26.2442 22.5134 24.9414 23.3558 24.1013C23.3591 24.0981 23.3624 24.0949 23.3658 24.0916L26.25 21.3112C26.2792 21.2831 26.3104 21.2571 26.3434 21.2336C27.3691 20.5029 28.673 20.5782 29.514 21.4169L31.3598 23.2576C33.1343 22.1883 35.0137 21.4282 36.8629 21.0315V18.3546C36.8629 17.1499 37.7717 16.1624 39.024 16.0064C39.0575 16.0022 39.0914 16 39.1252 16H43.1632C44.4108 16 45.4259 17.0562 45.4259 18.3546V20.9594C47.3415 21.4311 49.1912 22.2126 50.8425 23.2479L52.6786 21.4169C52.7106 21.385 52.745 21.3558 52.7819 21.3296C53.8076 20.5989 55.1114 20.6742 55.9524 21.5128C55.9557 21.5161 55.959 21.5194 55.9622 21.5228L58.7503 24.3991C58.7785 24.4282 58.8045 24.4594 58.8282 24.4924C59.5625 25.5175 59.4868 26.8203 58.6444 27.6604L56.801 29.4988C57.8721 31.2674 58.6338 33.1406 59.0315 34.9837H61.6223C62.9047 34.9837 63.9116 35.8705 64.0708 37.1403C64.075 37.1742 64.0771 37.2083 64.0771 37.2424V41.2691C64.0771 42.4736 63.1683 43.4612 61.916 43.6174C61.8824 43.6216 61.8484 43.6238 61.8145 43.6238H59.1999C58.7271 45.5329 57.944 47.3767 56.907 49.0227L58.7405 50.8512C58.7726 50.8831 58.8019 50.9176 58.8282 50.9544C59.5625 51.9795 59.4869 53.2823 58.6444 54.1225C58.6411 54.1257 58.6379 54.1289 58.6345 54.1322L55.7503 56.9126C55.721 56.9407 55.6899 56.9667 55.6568 56.9902C55.1861 57.3251 54.6567 57.4908 54.1406 57.4908Z"></path>
    </mask>
    <path d="M54.1406 57.4908C53.5318 57.4908 52.9414 57.2605 52.4863 56.8067L50.1789 54.5056L51.3377 53.3437L53.645 55.6447C53.9583 55.957 54.3776 55.8654 54.6611 55.6829L57.4896 52.9563C57.7941 52.6483 57.706 52.2383 57.527 51.9584L55.2744 49.7119C54.9942 49.4325 54.9534 48.993 55.1771 48.6668C56.4049 46.8772 57.292 44.7916 57.7425 42.6354C57.822 42.2551 58.1571 41.9827 58.5457 41.9827H61.7551C62.0264 41.9355 62.436 41.741 62.436 41.2691V37.302C62.4006 37.0985 62.2503 36.6247 61.6222 36.6247H58.3534C57.9524 36.6247 57.6102 36.335 57.544 35.9395C57.2036 33.9025 56.3481 31.7893 55.0702 29.8285C54.8582 29.5032 54.9032 29.0737 55.1782 28.7995L57.4856 26.4985C57.7966 26.1882 57.7057 25.7726 57.5237 25.4915L54.7897 22.671C54.4789 22.3653 54.065 22.4538 53.7828 22.6336L51.5301 24.8801C51.2511 25.1584 50.8137 25.1989 50.4882 24.9769C48.6934 23.7522 46.6015 22.8673 44.4386 22.4179C44.0579 22.3389 43.7849 22.0034 43.7849 21.6146V18.3546C43.7849 17.9278 43.4635 17.641 43.1633 17.641H39.1846C38.9134 17.6881 38.5037 17.8827 38.5037 18.3546V21.7103C38.5037 22.1115 38.2136 22.4538 37.8178 22.5197C35.7744 22.8594 33.6548 23.7127 31.6881 24.9875C31.3636 25.1978 30.9362 25.153 30.6625 24.88L28.3551 22.579C28.0419 22.2668 27.6226 22.3583 27.339 22.5408L24.5105 25.2675C24.2061 25.5754 24.2943 25.9854 24.4732 26.2652L26.7259 28.5117C27.0061 28.7911 27.0469 29.2307 26.8231 29.5568C25.5953 31.3464 24.7082 33.432 24.2578 35.5883C24.1783 35.9686 23.8431 36.241 23.4546 36.241H20.2451C19.9739 36.2881 19.5641 36.4827 19.5641 36.9546V40.9215C19.6115 41.1916 19.807 41.599 20.2819 41.599H23.5506C23.9515 41.599 24.2938 41.8887 24.3599 42.2842C24.7003 44.3213 25.5558 46.4345 26.8339 48.3952C27.0459 48.7205 27.0008 49.15 26.7259 49.4242L24.4185 51.7252C24.1074 52.0355 24.1984 52.4511 24.3804 52.7322L27.1145 55.5528C27.4254 55.8584 27.8391 55.7698 28.1214 55.5902L30.3741 53.3436L31.5328 54.5055L29.2255 56.8066C29.1935 56.8385 29.159 56.8677 29.1222 56.8938C28.0963 57.6246 26.7925 57.5493 25.9516 56.7107C25.9483 56.7074 25.9451 56.7041 25.9419 56.7007L23.1538 53.8246C23.1256 53.7955 23.0995 53.7643 23.0758 53.7314C22.3416 52.7063 22.4171 51.4035 23.2596 50.5633L25.1031 48.7249C24.0319 46.9563 23.2703 45.0833 22.8726 43.24H20.2819C19.0754 43.24 18.0861 42.333 17.9295 41.0834C17.9252 41.0495 17.9231 41.0155 17.9231 40.9813V36.9546C17.9231 35.7501 18.8319 34.7625 20.0842 34.6063C20.1179 34.6021 20.1518 34.5999 20.1858 34.5999H22.8003C23.2731 32.6908 24.0562 30.847 25.0932 29.201L23.2597 27.3725C23.2276 27.3406 23.1984 27.3061 23.172 27.2693C22.4378 26.2442 22.5134 24.9414 23.3558 24.1013C23.3591 24.0981 23.3624 24.0949 23.3658 24.0916L26.25 21.3112C26.2792 21.2831 26.3104 21.2571 26.3434 21.2336C27.3691 20.5029 28.673 20.5782 29.514 21.4169L31.3598 23.2576C33.1343 22.1883 35.0137 21.4282 36.8629 21.0315V18.3546C36.8629 17.1499 37.7717 16.1624 39.024 16.0064C39.0575 16.0022 39.0914 16 39.1252 16H43.1632C44.4108 16 45.4259 17.0562 45.4259 18.3546V20.9594C47.3415 21.4311 49.1912 22.2126 50.8425 23.2479L52.6786 21.4169C52.7106 21.385 52.745 21.3558 52.7819 21.3296C53.8076 20.5989 55.1114 20.6742 55.9524 21.5128C55.9557 21.5161 55.959 21.5194 55.9622 21.5228L58.7503 24.3991C58.7785 24.4282 58.8045 24.4594 58.8282 24.4924C59.5625 25.5175 59.4868 26.8203 58.6444 27.6604L56.801 29.4988C57.8721 31.2674 58.6338 33.1406 59.0315 34.9837H61.6223C62.9047 34.9837 63.9116 35.8705 64.0708 37.1403C64.075 37.1742 64.0771 37.2083 64.0771 37.2424V41.2691C64.0771 42.4736 63.1683 43.4612 61.916 43.6174C61.8824 43.6216 61.8484 43.6238 61.8145 43.6238H59.1999C58.7271 45.5329 57.944 47.3767 56.907 49.0227L58.7405 50.8512C58.7726 50.8831 58.8019 50.9176 58.8282 50.9544C59.5625 51.9795 59.4869 53.2823 58.6444 54.1225C58.6411 54.1257 58.6379 54.1289 58.6345 54.1322L55.7503 56.9126C55.721 56.9407 55.6899 56.9667 55.6568 56.9902C55.1861 57.3251 54.6567 57.4908 54.1406 57.4908Z" fill="white"></path>
    <path d="M54.1406 57.4908C53.5318 57.4908 52.9414 57.2605 52.4863 56.8067L50.1789 54.5056L51.3377 53.3437L53.645 55.6447C53.9583 55.957 54.3776 55.8654 54.6611 55.6829L57.4896 52.9563C57.7941 52.6483 57.706 52.2383 57.527 51.9584L55.2744 49.7119C54.9942 49.4325 54.9534 48.993 55.1771 48.6668C56.4049 46.8772 57.292 44.7916 57.7425 42.6354C57.822 42.2551 58.1571 41.9827 58.5457 41.9827H61.7551C62.0264 41.9355 62.436 41.741 62.436 41.2691V37.302C62.4006 37.0985 62.2503 36.6247 61.6222 36.6247H58.3534C57.9524 36.6247 57.6102 36.335 57.544 35.9395C57.2036 33.9025 56.3481 31.7893 55.0702 29.8285C54.8582 29.5032 54.9032 29.0737 55.1782 28.7995L57.4856 26.4985C57.7966 26.1882 57.7057 25.7726 57.5237 25.4915L54.7897 22.671C54.4789 22.3653 54.065 22.4538 53.7828 22.6336L51.5301 24.8801C51.2511 25.1584 50.8137 25.1989 50.4882 24.9769C48.6934 23.7522 46.6015 22.8673 44.4386 22.4179C44.0579 22.3389 43.7849 22.0034 43.7849 21.6146V18.3546C43.7849 17.9278 43.4635 17.641 43.1633 17.641H39.1846C38.9134 17.6881 38.5037 17.8827 38.5037 18.3546V21.7103C38.5037 22.1115 38.2136 22.4538 37.8178 22.5197C35.7744 22.8594 33.6548 23.7127 31.6881 24.9875C31.3636 25.1978 30.9362 25.153 30.6625 24.88L28.3551 22.579C28.0419 22.2668 27.6226 22.3583 27.339 22.5408L24.5105 25.2675C24.2061 25.5754 24.2943 25.9854 24.4732 26.2652L26.7259 28.5117C27.0061 28.7911 27.0469 29.2307 26.8231 29.5568C25.5953 31.3464 24.7082 33.432 24.2578 35.5883C24.1783 35.9686 23.8431 36.241 23.4546 36.241H20.2451C19.9739 36.2881 19.5641 36.4827 19.5641 36.9546V40.9215C19.6115 41.1916 19.807 41.599 20.2819 41.599H23.5506C23.9515 41.599 24.2938 41.8887 24.3599 42.2842C24.7003 44.3213 25.5558 46.4345 26.8339 48.3952C27.0459 48.7205 27.0008 49.15 26.7259 49.4242L24.4185 51.7252C24.1074 52.0355 24.1984 52.4511 24.3804 52.7322L27.1145 55.5528C27.4254 55.8584 27.8391 55.7698 28.1214 55.5902L30.3741 53.3436L31.5328 54.5055L29.2255 56.8066C29.1935 56.8385 29.159 56.8677 29.1222 56.8938C28.0963 57.6246 26.7925 57.5493 25.9516 56.7107C25.9483 56.7074 25.9451 56.7041 25.9419 56.7007L23.1538 53.8246C23.1256 53.7955 23.0995 53.7643 23.0758 53.7314C22.3416 52.7063 22.4171 51.4035 23.2596 50.5633L25.1031 48.7249C24.0319 46.9563 23.2703 45.0833 22.8726 43.24H20.2819C19.0754 43.24 18.0861 42.333 17.9295 41.0834C17.9252 41.0495 17.9231 41.0155 17.9231 40.9813V36.9546C17.9231 35.7501 18.8319 34.7625 20.0842 34.6063C20.1179 34.6021 20.1518 34.5999 20.1858 34.5999H22.8003C23.2731 32.6908 24.0562 30.847 25.0932 29.201L23.2597 27.3725C23.2276 27.3406 23.1984 27.3061 23.172 27.2693C22.4378 26.2442 22.5134 24.9414 23.3558 24.1013C23.3591 24.0981 23.3624 24.0949 23.3658 24.0916L26.25 21.3112C26.2792 21.2831 26.3104 21.2571 26.3434 21.2336C27.3691 20.5029 28.673 20.5782 29.514 21.4169L31.3598 23.2576C33.1343 22.1883 35.0137 21.4282 36.8629 21.0315V18.3546C36.8629 17.1499 37.7717 16.1624 39.024 16.0064C39.0575 16.0022 39.0914 16 39.1252 16H43.1632C44.4108 16 45.4259 17.0562 45.4259 18.3546V20.9594C47.3415 21.4311 49.1912 22.2126 50.8425 23.2479L52.6786 21.4169C52.7106 21.385 52.745 21.3558 52.7819 21.3296C53.8076 20.5989 55.1114 20.6742 55.9524 21.5128C55.9557 21.5161 55.959 21.5194 55.9622 21.5228L58.7503 24.3991C58.7785 24.4282 58.8045 24.4594 58.8282 24.4924C59.5625 25.5175 59.4868 26.8203 58.6444 27.6604L56.801 29.4988C57.8721 31.2674 58.6338 33.1406 59.0315 34.9837H61.6223C62.9047 34.9837 63.9116 35.8705 64.0708 37.1403C64.075 37.1742 64.0771 37.2083 64.0771 37.2424V41.2691C64.0771 42.4736 63.1683 43.4612 61.916 43.6174C61.8824 43.6216 61.8484 43.6238 61.8145 43.6238H59.1999C58.7271 45.5329 57.944 47.3767 56.907 49.0227L58.7405 50.8512C58.7726 50.8831 58.8019 50.9176 58.8282 50.9544C59.5625 51.9795 59.4869 53.2823 58.6444 54.1225C58.6411 54.1257 58.6379 54.1289 58.6345 54.1322L55.7503 56.9126C55.721 56.9407 55.6899 56.9667 55.6568 56.9902C55.1861 57.3251 54.6567 57.4908 54.1406 57.4908Z" stroke="white" stroke-width="0.6" mask="url(#path-3-outside-1_7587_43638)"></path>
  </g>
  <defs>
    <clipPath id="clip0_7587_43638">
      <rect width="48" height="48" fill="white" transform="translate(17 16)"></rect>
    </clipPath>
  </defs>
</svg>
