<?xml version="1.0" encoding="UTF-8"?>
<svg xmlns="http://www.w3.org/2000/svg" width="32" height="32" viewBox="0 0 32 32" fill="none">
  <rect x="0.5" y="0.5" width="31" height="31" rx="15.5" fill="white"></rect>
  <g clip-path="url(#clip0_8899_42479)">
    <path d="M16.2376 7.30184C16.1841 7.22545 16.0952 7.17969 16 7.17969C15.9048 7.17969 15.8157 7.22545 15.7623 7.30184C15.5227 7.64457 9.89282 15.7311 9.89282 18.8983C9.89282 22.1649 12.6324 24.8225 16 24.8225C19.3675 24.8225 22.1071 22.1649 22.1071 18.8983C22.1071 15.7311 16.4773 7.64457 16.2376 7.30184Z" fill="#5B8FF9"></path>
    <path d="M17.5507 22.4622C14.1832 22.4622 11.4436 19.8045 11.4436 16.5379C11.4436 14.4756 13.8305 10.3276 15.5622 7.58984C14.5173 9.11464 9.89282 16.026 9.89282 18.8965C9.89282 22.1631 12.6324 24.8207 16 24.8207C18.679 24.8207 20.9605 23.1386 21.7815 20.8061C20.6831 21.831 19.1915 22.4622 17.5507 22.4622Z" fill="#1F61E8"></path>
    <g clip-path="url(#clip1_8899_42479)">
      <path d="M15.3641 19.7709C15.448 19.803 15.5435 19.7718 15.5898 19.6963L17.6958 16.2443C17.7299 16.1884 17.7301 16.119 17.6963 16.0632C17.6624 16.0072 17.5998 15.9736 17.5329 15.9754L16.0635 16.0144L16.5506 13.896C16.5703 13.8104 16.5232 13.7238 16.4393 13.6914C16.3559 13.6592 16.2597 13.6906 16.2136 13.7659L14.1076 17.2179C14.0735 17.2738 14.0733 17.3432 14.1071 17.399C14.141 17.455 14.2036 17.4887 14.2705 17.4869L15.7399 17.4479L15.2527 19.5663C15.2331 19.6519 15.2802 19.7385 15.3641 19.7709Z" fill="white"></path>
    </g>
  </g>
  <rect x="0.5" y="0.5" width="31" height="31" rx="15.5" stroke="#DFDFDF"></rect>
  <defs>
    <clipPath id="clip0_8899_42479">
      <rect width="19" height="19" fill="white" transform="translate(6.5 6.5)"></rect>
    </clipPath>
    <clipPath id="clip1_8899_42479">
      <rect width="6.26499" height="6.07768" fill="white" transform="matrix(0.999648 -0.0265312 0.0281931 0.999602 12.6847 13.7773)"></rect>
    </clipPath>
  </defs>
</svg>
